<?xml version="1.0" encoding="UTF-8"?><svg id="Layer_2" xmlns="http://www.w3.org/2000/svg" viewBox="0 0 425.18 98.28"><g id="Layer_1-2"><path d="M53.94,59.14v39.05c-1.12,0-2.17.07-3.21-.04-.38-.04-.78-.44-1.05-.77-6.81-8.57-13.61-17.15-20.41-25.73-1.35-1.7-2.71-3.4-4.27-5.35v31.82h-3.96v-38.94c2.14-.65,3.15-.36,4.45,1.3,7.96,10.08,15.92,20.15,23.88,30.23.15.19.32.36.68.76v-32.34h3.88Z"/><path d="M291.28,98.09c-.2.05-.28.08-.36.09-2.27.43-3.72-.46-5.16-2.32-7.58-9.78-15.33-19.44-23.03-29.13-.05-.06-.13-.09-.34-.22v31.6h-3.97v-38.92c1.96-.67,3.13-.37,4.35,1.17,8.02,10.14,16.03,20.28,24.05,30.42.13.16.28.31.6.67v-32.34h3.87v38.97Z"/><path d="M392.81,98.17v-39.1c.32-.05.56-.11.8-.11,5.03.03,10.07-.15,15.07.17,6.95.45,12.01,3.96,14.67,10.46,2.37,5.79,2.44,11.76.2,17.58-2.65,6.91-8.06,10.46-15.31,10.94-5.09.34-10.21.06-15.43.06ZM396.81,94.7c3.47,0,6.88.07,10.29-.02,5.44-.13,9.49-2.61,12.03-7.43,2.06-3.91,2.31-8.1,1.71-12.38-.89-6.42-5.31-11.35-11.58-12.12-4.04-.5-8.17-.17-12.27-.2-.06,0-.12.09-.19.15v32.01Z"/><path d="M173.4,83.3c3.08,4.83,6.21,9.75,9.49,14.89-1.5,0-2.78.06-4.05-.04-.34-.03-.73-.49-.96-.84-2.69-4.16-5.39-8.33-8.02-12.54-.49-.79-1.02-1.04-1.92-1.02-3.38.05-6.75.02-10.26.02v14.33h-4.02v-39c.21-.06.36-.14.52-.14,5.53,0,11.07-.1,16.6.06,4.91.14,8.08,2.98,10.12,7.21,2.46,5.09.77,11.98-3.77,15.16-1.11.78-2.44,1.26-3.73,1.9ZM157.7,62.47v17.79c4.52,0,8.96.03,13.39-.03.77-.01,1.59-.29,2.29-.64,3.06-1.53,4.28-4.25,4.62-7.47.52-4.89-3.24-10.11-8.79-9.69-2.82.21-5.66.04-8.49.04-1,0-2.01,0-3.02,0Z"/><path d="M116.56,79.78v14.87h22.45v3.46h-26.4v-39.07h25.91v3.43h-21.94v14.01h19.09v3.31h-19.1Z"/><path d="M355.72,76.52h19.09v3.26h-19.06v14.87h22.41v3.46h-26.4v-39.07h25.91v3.43h-21.94v14.06Z"/><path d="M308.62,59.01h3.86v22.28c.14.1.28.2.42.3.54-.65,1.05-1.34,1.63-1.95,6.27-6.65,12.56-13.28,18.83-19.94.6-.64,1.21-.94,2.09-.87.91.07,1.84.02,3.15.02-5.51,5.91-10.8,11.58-16.16,17.32,5.58,7.27,11.15,14.53,16.9,22.02-1.54,0-2.83.09-4.1-.05-.42-.04-.86-.6-1.17-1.01-4.58-5.98-9.14-11.98-13.71-17.97-.12-.16-.28-.3-.25-.27-1.85,1.72-3.61,3.48-5.5,5.07-1.73,1.47-2.24,3.2-2.1,5.42.19,2.88.05,5.78.05,8.74h-3.93v-39.11Z"/><path d="M85.25,98.15h-3.92v-35.66h-14.01v-3.44h31.93v3.34h-14v35.75Z"/><path d="M224.09,98.15h-26.54v-39.08h3.9v35.59h22.64v3.48Z"/><path d="M3.86,98.16H0v-39.08h3.86v39.08Z"/><path d="M237.12,59.03h3.85v39.08h-3.85v-39.08Z"/><path d="M85.72,47.15c-13,0-23.58-10.58-23.58-23.58S72.72,0,85.72,0c2.59,0,5.13.42,7.56,1.24,1.66.56,2.55,2.36,1.99,4.02-.56,1.66-2.36,2.55-4.02,1.99-1.77-.6-3.63-.9-5.53-.9-9.5,0-17.24,7.73-17.24,17.23s7.73,17.24,17.24,17.24c1.75,0,3.17,1.42,3.17,3.17s-1.42,3.17-3.17,3.17Z" style="fill:#de242b;"/><path d="M95.95,44.41c-1.09,0-2.16-.57-2.75-1.58-.88-1.52-.36-3.46,1.15-4.34,2.56-1.49,4.71-3.63,6.22-6.18.89-1.51,2.83-2.01,4.34-1.12,1.51.89,2.01,2.83,1.12,4.34-2.06,3.49-5,6.41-8.5,8.44-.5.29-1.05.43-1.59.43Z" style="fill:#de242b;"/><path d="M97.37,11.39c0-1.76,1.43-3.19,3.19-3.19s3.19,1.43,3.19,3.19-1.43,3.19-3.19,3.19-3.19-1.43-3.19-3.19" style="fill:#de242b;"/><path d="M101.37,22.12c0-1.76,1.43-3.19,3.19-3.19s3.19,1.43,3.19,3.19-1.43,3.19-3.19,3.19-3.19-1.43-3.19-3.19" style="fill:#de242b;"/><path d="M148.2,47.15c-13,0-23.58-10.58-23.58-23.58S135.2,0,148.2,0c2.59,0,5.13.42,7.56,1.24,1.66.56,2.55,2.36,1.99,4.02-.56,1.66-2.36,2.55-4.02,1.99-1.77-.6-3.63-.9-5.53-.9-9.5,0-17.24,7.73-17.24,17.23s7.73,17.24,17.24,17.24c1.75,0,3.17,1.42,3.17,3.17s-1.42,3.17-3.17,3.17Z" style="fill:#61b946;"/><path d="M158.43,44.41c-1.09,0-2.16-.57-2.75-1.58-.88-1.52-.36-3.46,1.15-4.34,2.56-1.49,4.71-3.63,6.22-6.18.89-1.51,2.83-2.01,4.34-1.12,1.51.89,2.01,2.83,1.12,4.34-2.06,3.49-5,6.41-8.5,8.44-.5.29-1.05.43-1.59.43Z" style="fill:#61b946;"/><path d="M159.85,11.39c0-1.76,1.43-3.19,3.19-3.19s3.19,1.43,3.19,3.19-1.43,3.19-3.19,3.19-3.19-1.43-3.19-3.19" style="fill:#61b946;"/><path d="M163.85,22.12c0-1.76,1.43-3.19,3.19-3.19s3.19,1.43,3.19,3.19-1.43,3.19-3.19,3.19-3.19-1.43-3.19-3.19" style="fill:#61b946;"/><path d="M23.58,47.15C10.58,47.15,0,36.58,0,23.58S10.58,0,23.58,0c2.59,0,5.13.42,7.56,1.24,1.66.56,2.55,2.36,1.99,4.02-.56,1.66-2.36,2.55-4.02,1.99-1.77-.6-3.63-.9-5.53-.9-9.5,0-17.24,7.73-17.24,17.23s7.73,17.24,17.24,17.24c1.75,0,3.17,1.42,3.17,3.17s-1.42,3.17-3.17,3.17Z" style="fill:#3571b8;"/><path d="M33.81,44.41c-1.09,0-2.16-.57-2.75-1.58-.88-1.52-.36-3.46,1.15-4.34,2.56-1.49,4.71-3.63,6.22-6.18.89-1.51,2.83-2.01,4.34-1.12,1.51.89,2.01,2.83,1.12,4.34-2.06,3.49-5,6.41-8.5,8.44-.5.29-1.05.43-1.59.43Z" style="fill:#3571b8;"/><path d="M35.23,11.39c0-1.76,1.43-3.19,3.19-3.19s3.19,1.43,3.19,3.19-1.43,3.19-3.19,3.19-3.19-1.43-3.19-3.19" style="fill:#3571b8;"/><path d="M39.23,22.12c0-1.76,1.43-3.19,3.19-3.19s3.19,1.43,3.19,3.19-1.43,3.19-3.19,3.19-3.19-1.43-3.19-3.19" style="fill:#3571b8;"/></g></svg>