<?xml version="1.0" encoding="UTF-8"?><svg id="Layer_2" xmlns="http://www.w3.org/2000/svg" xmlns:xlink="http://www.w3.org/1999/xlink" viewBox="0 0 5957.39 357.1"><defs><linearGradient id="linear-gradient" x1="5589.31" y1="65.43" x2="5719.93" y2="291.67" gradientUnits="userSpaceOnUse"><stop offset="0" stop-color="#fff"/><stop offset=".37" stop-color="#fdfdfd" stop-opacity=".99"/><stop offset=".51" stop-color="#f6f6f6" stop-opacity=".97"/><stop offset=".6" stop-color="#eaeaea" stop-opacity=".94"/><stop offset=".68" stop-color="#d9d9d9" stop-opacity=".88"/><stop offset=".75" stop-color="#c3c3c3" stop-opacity=".81"/><stop offset=".8" stop-color="#a8a8a8" stop-opacity=".73"/><stop offset=".86" stop-color="#878787" stop-opacity=".63"/><stop offset=".91" stop-color="#626262" stop-opacity=".51"/><stop offset=".95" stop-color="#373737" stop-opacity=".37"/><stop offset=".99" stop-color="#090909" stop-opacity=".23"/><stop offset="1" stop-color="#000" stop-opacity=".2"/></linearGradient></defs><g id="Layer_1-2"><path d="M.09,356.78c6.48-5.44,12.62-10.6,19.08-16.02-6.27-5.29-12.44-10.49-19.17-16.17,1.58,0,2.45,0,3.32,0,51.11,0,5422-.04,5422-.04l.38,32.23H.09Z" style="fill:#3471b8;"/><path d="M5705.5,314.52c4.04-1.87,8.14-3.62,12.12-5.63,27.38-13.86,48.45-34.27,63.28-61.12,6.71-12.16,11.4-25.06,14.4-38.61,2.75-12.4,3.89-24.97,3.31-37.61-1.01-22.12-6.39-43.24-17.33-62.54-23.15-40.85-57.7-66.37-104.18-74.6-60.44-10.7-121.35,18.47-151.65,72-13.83,24.43-20.39,50.72-18.83,78.69,2.5,44.87,21.76,81.31,57.06,109.14,17.72,13.97,37.89,22.82,59.95,27.35,9.69,1.99,19.53,2.79,29.44,2.75,19.13-.07,38.26-.06,57.39-.05,15.29,0,30.58.04,45.86.08,31.52.08,63.03.21,94.55.26,27.88.04,55.76,0,83.65-.08,2.45,0,4.35.51,6.26,2.21,5.33,4.73,10.9,9.2,16.61,13.96-3.83,3.22-7.5,6.31-11.17,9.39-1.15.96-2.5,1.75-3.43,2.88-3.08,3.72-7.06,4.09-11.58,4.08-93.76-.09-187.52.22-281.27-.19-40.03-.18-76.03-13.34-107.5-38.11-32.57-25.64-53.77-58.81-63.63-99.06-4.83-19.71-6.01-39.76-3.79-59.95,4.91-44.68,23.99-82.34,56.9-112.81,26.33-24.37,57.38-39.78,92.96-44.82,62.33-8.83,115.61,9.79,158.95,55.35,23.59,24.8,38.07,54.6,44.44,88.31,3.38,17.88,4.11,35.86,1.83,53.84-5.79,45.53-26.09,83.49-60.6,113.8-.85.75-2.17,1.38-3.27,1.38-19.81.14-39.61.18-59.42.24-.4,0-.8-.06-1.2-.1-.03-.14-.07-.28-.1-.43Z" style="fill:#3471b8;"/><path d="M5374.63,356.78c6.48-5.44,12.62-10.6,19.08-16.02-6.27-5.29-12.44-10.49-19.17-16.17,1.58,0,2.45,0,3.32,0,51.11,0,102.22,0,153.34-.04,1.94,0,3.42.5,4.96,1.71,16.72,13.2,35.17,23.27,55.28,30.51h-216.8Z" style="fill:#3471b8;"/><path d="M5654.62,47.95c-72.13,0-130.59,58.47-130.59,130.6s58.47,130.59,130.59,130.59,130.59-58.47,130.59-130.59-58.47-130.6-130.59-130.6" style="fill:url(#linear-gradient);"/><path d="M5654.48,52.6c-69.52,0-125.87,56.36-125.87,125.88s56.35,125.87,125.87,125.87,125.87-56.35,125.87-125.87-56.35-125.88-125.87-125.88" style="fill:#e8ecec;"/><path d="M5564.25,157.57v16.98h-2.22v-16.98h2.22Z"/><path d="M5586,174.54h-2.22l-8.91-13.52v13.52h-2.22v-17h2.22l8.91,13.5v-13.5h2.22v17Z"/><path d="M5604.85,157.57v1.8h-4.63v15.18h-2.22v-15.18h-4.65v-1.8h11.5Z"/><path d="M5614.43,159.37v5.68h6.19v1.83h-6.19v5.85h6.92v1.83h-9.13v-17h9.13v1.83h-6.92Z"/><path d="M5638.27,174.54l-4.04-6.94h-2.68v6.94h-2.22v-16.98h5.48c1.28,0,2.37.22,3.25.66.88.44,1.55,1.03,1.98,1.78.44.75.66,1.6.66,2.56,0,1.17-.34,2.2-1.01,3.09-.67.89-1.68,1.49-3.03,1.78l4.26,7.11h-2.66ZM5631.55,165.82h3.26c1.2,0,2.1-.3,2.7-.89s.9-1.38.9-2.38-.3-1.79-.89-2.34c-.59-.55-1.5-.83-2.72-.83h-3.26v6.43Z"/><path d="M5650.99,172.74h5.94v1.8h-8.16v-16.98h2.22v15.18Z"/><path d="M5666.14,157.57v16.98h-2.22v-16.98h2.22Z"/><path d="M5687.89,174.54h-2.22l-8.91-13.52v13.52h-2.22v-17h2.22l8.91,13.5v-13.5h2.22v17Z"/><path d="M5705.5,174.54l-6.99-7.75v7.75h-2.22v-16.98h2.22v7.87l7.02-7.87h2.8l-7.7,8.5,7.77,8.48h-2.9Z"/><path d="M5717.73,159.37v5.68h6.19v1.83h-6.19v5.85h6.92v1.83h-9.13v-17h9.13v1.83h-6.92Z"/><path d="M5742.73,158.6c1.36.69,2.4,1.68,3.12,2.96.72,1.28,1.08,2.79,1.08,4.53s-.36,3.24-1.08,4.52c-.72,1.28-1.76,2.25-3.12,2.92-1.36.67-2.96,1.01-4.81,1.01h-5.29v-16.98h5.29c1.85,0,3.45.34,4.81,1.04ZM5742.94,170.98c1.15-1.16,1.73-2.79,1.73-4.88s-.58-3.76-1.74-4.94-2.83-1.78-5.01-1.78h-3.07v13.35h3.07c2.19,0,3.86-.58,5.02-1.74Z"/><path d="M5585.71,192.18v4.66h5.08v1.5h-5.08v4.8h5.68v1.5h-7.5v-13.96h7.5v1.5h-5.68Z" style="fill:#1a63ae;"/><path d="M5599.77,203.16h4.88v1.48h-6.7v-13.94h1.82v12.46Z" style="fill:#1a63ae;"/><path d="M5612.21,192.18v4.66h5.08v1.5h-5.08v4.8h5.68v1.5h-7.5v-13.96h7.5v1.5h-5.68Z" style="fill:#1a63ae;"/><path d="M5624.69,193.99c.61-1.09,1.45-1.94,2.51-2.55s2.24-.92,3.53-.92c1.52,0,2.85.37,3.98,1.1s1.96,1.77,2.48,3.12h-2.18c-.39-.84-.94-1.49-1.67-1.94-.73-.45-1.6-.68-2.61-.68s-1.85.23-2.62.68c-.77.45-1.38,1.1-1.82,1.93-.44.83-.66,1.81-.66,2.93s.22,2.08.66,2.91c.44.83,1.05,1.48,1.82,1.93.77.45,1.65.68,2.62.68s1.88-.22,2.61-.67c.73-.45,1.28-1.09,1.67-1.93h2.18c-.52,1.33-1.35,2.36-2.48,3.09s-2.46,1.09-3.98,1.09c-1.29,0-2.47-.3-3.53-.91s-1.9-1.45-2.51-2.53-.92-2.3-.92-3.66.31-2.58.92-3.67Z" style="fill:#1a63ae;"/><path d="M5652.27,190.7v1.48h-3.8v12.46h-1.82v-12.46h-3.82v-1.48h9.44Z" style="fill:#1a63ae;"/><path d="M5665.65,204.64l-3.32-5.7h-2.2v5.7h-1.82v-13.94h4.5c1.05,0,1.94.18,2.67.54.73.36,1.27.85,1.63,1.46.36.61.54,1.31.54,2.1,0,.96-.28,1.81-.83,2.54s-1.38,1.22-2.49,1.46l3.5,5.84h-2.18ZM5660.13,197.48h2.68c.99,0,1.73-.24,2.22-.73.49-.49.74-1.14.74-1.95s-.24-1.47-.73-1.92c-.49-.45-1.23-.68-2.23-.68h-2.68v5.28Z" style="fill:#1a63ae;"/><path d="M5676.09,190.7v13.94h-1.82v-13.94h1.82Z" style="fill:#1a63ae;"/><path d="M5683.23,193.99c.61-1.09,1.45-1.94,2.51-2.55s2.24-.92,3.53-.92c1.52,0,2.85.37,3.98,1.1s1.96,1.77,2.48,3.12h-2.18c-.39-.84-.94-1.49-1.67-1.94-.73-.45-1.6-.68-2.61-.68s-1.85.23-2.62.68c-.77.45-1.38,1.1-1.82,1.93-.44.83-.66,1.81-.66,2.93s.22,2.08.66,2.91c.44.83,1.05,1.48,1.82,1.93.77.45,1.65.68,2.62.68s1.88-.22,2.61-.67c.73-.45,1.28-1.09,1.67-1.93h2.18c-.52,1.33-1.35,2.36-2.48,3.09s-2.46,1.09-3.98,1.09c-1.29,0-2.47-.3-3.53-.91s-1.9-1.45-2.51-2.53-.92-2.3-.92-3.66.31-2.58.92-3.67Z" style="fill:#1a63ae;"/><path d="M5710.47,201.54h-6.08l-1.12,3.1h-1.92l5.04-13.86h2.1l5.02,13.86h-1.92l-1.12-3.1ZM5709.95,200.06l-2.52-7.04-2.52,7.04h5.04Z" style="fill:#1a63ae;"/><path d="M5721.33,203.16h4.88v1.48h-6.7v-13.94h1.82v12.46Z" style="fill:#1a63ae;"/><path d="M5591.49,220.54v1.54h-7.98v-1.54h7.98Z" style="fill:#1a63ae;"/><path d="M5607,215.55c1.11.57,1.97,1.38,2.56,2.43.59,1.05.89,2.29.89,3.72s-.3,2.66-.89,3.71c-.59,1.05-1.45,1.85-2.56,2.4-1.11.55-2.43.83-3.95.83h-4.34v-13.94h4.34c1.52,0,2.84.28,3.95.85ZM5607.17,225.71c.95-.95,1.42-2.29,1.42-4.01s-.48-3.09-1.43-4.06c-.95-.97-2.32-1.46-4.11-1.46h-2.52v10.96h2.52c1.8,0,3.17-.48,4.12-1.43Z" style="fill:#1a63ae;"/><path d="M5624.89,225.54h-6.08l-1.12,3.1h-1.92l5.04-13.86h2.1l5.02,13.86h-1.92l-1.12-3.1ZM5624.37,224.06l-2.52-7.04-2.52,7.04h5.04Z" style="fill:#1a63ae;"/><path d="M5642.51,214.7v1.48h-3.8v12.46h-1.82v-12.46h-3.82v-1.48h9.44Z" style="fill:#1a63ae;"/><path d="M5656.79,225.54h-6.08l-1.12,3.1h-1.92l5.04-13.86h2.1l5.02,13.86h-1.92l-1.12-3.1ZM5656.27,224.06l-2.52-7.04-2.52,7.04h5.04Z" style="fill:#1a63ae;"/><path d="M5673.43,220.54v1.54h-7.98v-1.54h7.98Z" style="fill:#1a63ae;"/><path d="M5682.47,214.7v13.94h-1.82v-13.94h1.82Z" style="fill:#1a63ae;"/><path d="M5697.95,214.7v1.48h-3.8v12.46h-1.82v-12.46h-3.82v-1.48h9.44Z" style="fill:#1a63ae;"/><path d="M5630.69,105.99c0,13.46,10.47,24.35,24.12,24.97,2.08.09,4.01.52,4.74,2.48.49,1.32.44,3.13-.07,4.45-.73,1.88-2.66,2.31-4.62,2.26-7.85-.18-14.94-2.62-20.87-7.72-10.89-9.37-15.02-21.31-11.31-35.19,3.71-13.87,13.22-22.16,27.32-24.93,5.2-1.02,10.45-.57,15.55.97,3.23.97,4.85,3.5,4.01,6.12-.83,2.59-3.3,3.61-6.57,2.73-16.64-4.48-32.28,7.08-32.29,23.85Z" style="fill:#3471b8;"/><path d="M5685.71,121.62c-.18.43-.45,1.4-.94,2.22-2.82,4.71-6.62,8.48-11.32,11.33-2.72,1.65-5.58,1.12-6.97-1.23-1.36-2.29-.61-4.87,2.07-6.54,3.59-2.24,6.45-5.17,8.67-8.76,1.28-2.06,3.25-2.61,5.41-1.93,2,.63,3.05,2.19,3.08,4.91Z" style="fill:#3471b8;"/><path d="M5683.04,108.45c-2.57.04-4.63-1.87-4.72-4.39-.09-2.57,2.09-4.82,4.65-4.8,2.44.02,4.63,2.18,4.64,4.61.02,2.49-2.03,4.53-4.58,4.58Z" style="fill:#3471b8;"/><path d="M5681.66,88.3c.02,2.59-1.89,4.6-4.42,4.66-2.59.06-4.77-2.1-4.72-4.7.05-2.47,2.21-4.62,4.63-4.59,2.53.03,4.48,2.03,4.5,4.63Z" style="fill:#3471b8;"/><path d="M5676.43,270.56c-.04,12.2-9.69,21.8-21.89,21.79-12.1-.01-21.98-9.82-22-21.83-.02-11.97,10.28-22.22,22.17-22.06,12.09.16,21.76,10,21.73,22.11ZM5650.34,256.75c-1.9,5.97.33,10.33,5.57,13.81-5.4,3.45-7.37,7.81-5.72,13.29,4.48-4.55,9.03-9.19,13.37-13.61-4.07-4.15-8.58-8.75-13.23-13.48Z" style="fill:#3471b8;"/></g></svg>