<?xml version="1.0" encoding="UTF-8"?><svg id="Layer_2" xmlns="http://www.w3.org/2000/svg" xmlns:xlink="http://www.w3.org/1999/xlink" viewBox="0 0 35.5 35.5"><defs><clipPath id="clippath"><rect width="35.5" height="35.5" style="fill:none;"/></clipPath><clipPath id="clippath-1"><path d="M56.39,17.75c0,21.32-17.31,38.63-38.63,38.63S-20.87,39.07-20.87,17.75-3.57-20.89,17.76-20.89,56.39-3.58,56.39,17.75" style="clip-rule:evenodd; fill:none;"/></clipPath><clipPath id="clippath-2"><rect x="-137.07" y="-1359.05" width="1133.86" height="4818.9" style="fill:none;"/></clipPath><clipPath id="clippath-3"><rect x="-137.05" y="-1359.07" width="1133.85" height="4818.9" style="fill:none;"/></clipPath></defs><g id="Layer_1-2"><g style="clip-path:url(#clippath);"><g style="clip-path:url(#clippath-1);"><g style="clip-path:url(#clippath-2);"><g style="clip-path:url(#clippath-3);"><rect x=".63" y=".63" width="30.43" height="34.24" rx="2.54" ry="2.54" style="fill:none; stroke:#fff; stroke-linecap:round; stroke-linejoin:round; stroke-width:1.27px;"/><rect x="3.8" y="3.8" width="24.09" height="27.9" style="fill:none; stroke:#fff; stroke-linecap:round; stroke-linejoin:round; stroke-width:1.27px;"/><polyline points="31.07 12.05 34.87 12.05 34.87 6.11 33.6 6.11" style="fill:none; stroke:#fff; stroke-linecap:round; stroke-linejoin:round; stroke-width:1.27px;"/><polyline points="31.07 28.14 34.87 28.14 34.87 22.2 33.6 22.2" style="fill:none; stroke:#fff; stroke-linecap:round; stroke-linejoin:round; stroke-width:1.27px;"/><path d="M12.68,25.36c0-1.4-1.14-2.54-2.54-2.54s-2.54,1.14-2.54,2.54,1.13,2.54,2.54,2.54,2.54-1.14,2.54-2.54Z" style="fill:none; stroke:#fff; stroke-linecap:round; stroke-linejoin:round; stroke-width:1.27px;"/><line x1="10.14" y1="22.82" x2="10.14" y2="24.73" style="fill:none; stroke:#fff; stroke-linecap:round; stroke-linejoin:round; stroke-width:1.27px;"/><polyline points="15.85 12.05 14.58 14.58 17.12 14.58 15.85 17.12" style="fill:none; stroke:#fff; stroke-linecap:round; stroke-linejoin:round; stroke-width:1.27px;"/><path d="M21.93,16.66l-4.23-7.4c-.36-.62-1.02-1.01-1.74-1.01h-.21c-.72,0-1.38.39-1.74,1.01l-4.23,7.4c-.17.3-.26.65-.26.99,0,1.11.9,2,2,2h8.67c1.11,0,2-.9,2-2,0-.35-.09-.69-.26-.99Z" style="fill:none; stroke:#fff; stroke-linecap:round; stroke-linejoin:round; stroke-width:1.27px;"/><line x1="22.82" y1="25.5" x2="23.46" y2="25.5" style="fill:none; stroke:#fff; stroke-linecap:round; stroke-linejoin:round; stroke-width:1.27px;"/><line x1="19.65" y1="25.5" x2="20.29" y2="25.5" style="fill:none; stroke:#fff; stroke-linecap:round; stroke-linejoin:round; stroke-width:1.27px;"/><line x1="16.48" y1="25.5" x2="17.12" y2="25.5" style="fill:none; stroke:#fff; stroke-linecap:round; stroke-linejoin:round; stroke-width:1.27px;"/></g></g></g></g></g></svg>