<?xml version="1.0" encoding="UTF-8"?><svg id="Layer_2" xmlns="http://www.w3.org/2000/svg" viewBox="0 0 388.77 402"><g id="Layer_1-2"><path d="M201,402C90.17,402,0,311.83,0,201S90.17,0,201,0c22.05,0,43.73,3.55,64.45,10.56,14.14,4.78,21.73,20.13,16.94,34.28-4.78,14.15-20.16,21.73-34.28,16.95-15.12-5.12-30.97-7.71-47.11-7.71-81.01,0-146.92,65.91-146.92,146.92s65.91,146.92,146.92,146.92c14.93,0,27.04,12.11,27.04,27.04s-12.11,27.04-27.04,27.04" style="fill:#fff;"/><path d="M288.25,378.59c-9.32,0-18.4-4.83-23.41-13.47-7.5-12.92-3.11-29.47,9.81-36.97,21.86-12.69,40.19-30.91,53.03-52.68,7.58-12.86,24.15-17.15,37.03-9.57s17.16,24.16,9.57,37.03c-17.53,29.76-42.59,54.65-72.46,72-4.27,2.48-8.95,3.66-13.55,3.66" style="fill:#fff;"/><path d="M300.32,97.12c0-15.01,12.17-27.18,27.18-27.18s27.18,12.17,27.18,27.18-12.17,27.18-27.18,27.18-27.18-12.17-27.18-27.18" style="fill:#fff;"/><path d="M334.42,188.63c0-15.01,12.17-27.18,27.18-27.18s27.18,12.17,27.18,27.18-12.17,27.18-27.18,27.18-27.18-12.17-27.18-27.18" style="fill:#fff;"/><path d="M317.39,201.33c0,63.56-51.58,115.14-115.14,115.14s-115.14-51.58-115.14-115.14,51.58-115.14,115.14-115.14,115.14,51.58,115.14,115.14" style="fill-rule:evenodd;"/><path d="M202.57,155.58c-6.9,0-12.52-5.61-12.52-12.52s5.61-12.51,12.52-12.51c1.37,0,2.72.22,4.01.66.88.3,1.35,1.25,1.06,2.13-.3.88-1.25,1.35-2.13,1.06-.94-.32-1.93-.48-2.93-.48-5.05,0-9.15,4.1-9.15,9.15s4.1,9.15,9.15,9.15c.93,0,1.68.75,1.68,1.68s-.75,1.68-1.68,1.68Z" style="fill:#de242b;"/><path d="M208.01,154.12c-.58,0-1.14-.3-1.46-.84-.47-.8-.19-1.83.61-2.3,1.36-.79,2.5-1.92,3.3-3.28.47-.8,1.5-1.07,2.31-.6.8.47,1.07,1.5.6,2.31-1.09,1.85-2.65,3.4-4.51,4.48-.27.15-.56.23-.84.23Z" style="fill:#de242b;"/><path d="M208.76,136.59c0-.93.76-1.69,1.69-1.69s1.69.76,1.69,1.69-.76,1.69-1.69,1.69-1.69-.76-1.69-1.69" style="fill:#de242b;"/><path d="M210.88,142.29c0-.93.76-1.69,1.69-1.69s1.69.76,1.69,1.69-.76,1.69-1.69,1.69-1.69-.76-1.69-1.69" style="fill:#de242b;"/><path d="M235.74,155.58c-6.9,0-12.52-5.61-12.52-12.52s5.61-12.51,12.52-12.51c1.37,0,2.72.22,4.01.66.88.3,1.35,1.25,1.06,2.13-.3.88-1.25,1.35-2.13,1.06-.94-.32-1.93-.48-2.93-.48-5.05,0-9.15,4.1-9.15,9.15s4.1,9.15,9.15,9.15c.93,0,1.68.75,1.68,1.68s-.75,1.68-1.68,1.68Z" style="fill:#61b946;"/><path d="M241.17,154.12c-.58,0-1.14-.3-1.46-.84-.47-.8-.19-1.83.61-2.3,1.36-.79,2.5-1.92,3.3-3.28.47-.8,1.5-1.07,2.31-.6.8.47,1.07,1.5.6,2.31-1.09,1.85-2.65,3.4-4.51,4.48-.27.15-.56.23-.84.23Z" style="fill:#61b946;"/><path d="M241.93,136.59c0-.93.76-1.69,1.69-1.69s1.69.76,1.69,1.69-.76,1.69-1.69,1.69-1.69-.76-1.69-1.69" style="fill:#61b946;"/><path d="M244.05,142.29c0-.93.76-1.69,1.69-1.69s1.69.76,1.69,1.69-.76,1.69-1.69,1.69-1.69-.76-1.69-1.69" style="fill:#61b946;"/><path d="M169.59,155.58c-6.9,0-12.52-5.61-12.52-12.52s5.61-12.51,12.52-12.51c1.37,0,2.72.22,4.01.66.88.3,1.35,1.25,1.06,2.13-.3.88-1.25,1.35-2.13,1.06-.94-.32-1.93-.48-2.93-.48-5.05,0-9.15,4.1-9.15,9.15s4.1,9.15,9.15,9.15c.93,0,1.68.75,1.68,1.68s-.75,1.68-1.68,1.68Z" style="fill:#3571b8;"/><path d="M175.02,154.12c-.58,0-1.14-.3-1.46-.84-.47-.8-.19-1.83.61-2.3,1.36-.79,2.5-1.92,3.3-3.28.47-.8,1.5-1.07,2.31-.6.8.47,1.07,1.5.6,2.31-1.09,1.85-2.65,3.4-4.51,4.48-.27.15-.56.23-.84.23Z" style="fill:#3571b8;"/><path d="M175.78,136.59c0-.93.76-1.69,1.69-1.69s1.69.76,1.69,1.69-.76,1.69-1.69,1.69-1.69-.76-1.69-1.69" style="fill:#3571b8;"/><path d="M177.9,142.29c0-.93.76-1.69,1.69-1.69s1.69.76,1.69,1.69-.76,1.69-1.69,1.69-1.69-.76-1.69-1.69" style="fill:#3571b8;"/><path d="M119.83,197.4c.9-1.6,2.13-2.85,3.69-3.75,1.56-.9,3.29-1.35,5.19-1.35,2.24,0,4.19.54,5.85,1.62,1.67,1.08,2.88,2.61,3.65,4.59h-3.21c-.57-1.23-1.39-2.19-2.46-2.85-1.07-.67-2.35-1-3.84-1s-2.72.33-3.85,1c-1.14.67-2.03,1.61-2.68,2.84-.65,1.23-.97,2.66-.97,4.31s.32,3.05.97,4.28c.65,1.23,1.54,2.17,2.68,2.84,1.14.67,2.42,1,3.85,1s2.77-.33,3.84-.98c1.07-.66,1.89-1.6,2.46-2.84h3.21c-.76,1.96-1.98,3.48-3.65,4.54-1.67,1.07-3.62,1.6-5.85,1.6-1.9,0-3.63-.45-5.19-1.34-1.56-.89-2.79-2.13-3.69-3.72-.9-1.59-1.35-3.38-1.35-5.38s.45-3.8,1.35-5.4Z" style="fill:#fff;"/><path d="M146.44,212.3c-1.23-.69-2.19-1.66-2.88-2.93-.7-1.26-1.04-2.73-1.04-4.4s.36-3.1,1.07-4.37c.72-1.26,1.69-2.24,2.93-2.91,1.24-.68,2.62-1.01,4.15-1.01s2.91.34,4.15,1.01c1.24.68,2.21,1.64,2.93,2.9.72,1.25,1.07,2.72,1.07,4.38s-.37,3.13-1.1,4.4-1.73,2.24-2.99,2.93c-1.25.69-2.65,1.03-4.18,1.03s-2.88-.34-4.1-1.03ZM153.25,210.3c.84-.45,1.52-1.13,2.04-2.03.52-.9.78-2,.78-3.29s-.25-2.39-.76-3.29c-.51-.9-1.18-1.57-2-2.02-.82-.44-1.72-.66-2.68-.66s-1.88.22-2.69.66c-.81.44-1.47,1.11-1.96,2.02s-.74,2-.74,3.29.24,2.42.72,3.32c.48.9,1.12,1.57,1.93,2.01.8.44,1.69.66,2.65.66s1.86-.23,2.71-.68Z" style="fill:#fff;"/><path d="M176.25,198.43c1.22,1.19,1.82,2.9,1.82,5.13v9.5h-2.65v-9.12c0-1.61-.4-2.84-1.21-3.69-.8-.85-1.9-1.28-3.29-1.28s-2.54.44-3.37,1.32c-.83.88-1.25,2.17-1.25,3.85v8.91h-2.68v-16.12h2.68v2.29c.53-.82,1.25-1.46,2.16-1.91s1.92-.68,3.01-.68c1.96,0,3.55.59,4.77,1.78Z" style="fill:#fff;"/><path d="M187.05,199.15v9.5c0,.78.17,1.34.5,1.66s.91.49,1.74.49h1.97v2.27h-2.41c-1.49,0-2.61-.34-3.35-1.03-.75-.69-1.12-1.81-1.12-3.38v-9.5h-2.09v-2.21h2.09v-4.06h2.68v4.06h4.21v2.21h-4.21Z" style="fill:#fff;"/><path d="M195.78,200.61c.67-1.24,1.58-2.21,2.75-2.9,1.17-.69,2.47-1.03,3.9-1.03s2.64.3,3.68.91c1.04.61,1.81,1.37,2.32,2.29v-2.94h2.71v16.12h-2.71v-3c-.53.94-1.32,1.72-2.37,2.34-1.05.62-2.27.93-3.66.93s-2.73-.35-3.88-1.06-2.07-1.7-2.74-2.97c-.67-1.28-1-2.73-1-4.35s.33-3.09,1-4.34ZM207.7,201.8c-.49-.9-1.15-1.59-1.99-2.07-.83-.48-1.75-.72-2.75-.72s-1.91.24-2.74.71-1.48,1.16-1.97,2.06c-.49.9-.74,1.96-.74,3.18s.25,2.31.74,3.22,1.15,1.61,1.97,2.09,1.74.72,2.74.72,1.92-.24,2.75-.72c.83-.48,1.5-1.18,1.99-2.09s.74-1.98.74-3.19-.25-2.28-.74-3.18Z" style="fill:#fff;"/><path d="M216.96,200.61c.67-1.24,1.59-2.21,2.78-2.9,1.19-.69,2.54-1.03,4.07-1.03,1.98,0,3.61.48,4.9,1.44,1.28.96,2.13,2.29,2.54,4h-2.88c-.27-.98-.81-1.76-1.6-2.32-.79-.57-1.78-.85-2.96-.85-1.53,0-2.76.53-3.71,1.57s-1.41,2.54-1.41,4.46.47,3.44,1.41,4.5c.94,1.06,2.18,1.59,3.71,1.59,1.18,0,2.16-.27,2.94-.82s1.32-1.33,1.62-2.35h2.88c-.43,1.65-1.29,2.97-2.59,3.96-1.29.99-2.91,1.48-4.85,1.48-1.53,0-2.89-.34-4.07-1.03-1.19-.69-2.11-1.66-2.78-2.91-.67-1.25-1-2.73-1-4.41s.33-3.12,1-4.37Z" style="fill:#fff;"/><path d="M239.41,199.15v9.5c0,.78.17,1.34.5,1.66s.91.49,1.74.49h1.97v2.27h-2.41c-1.49,0-2.61-.34-3.35-1.03-.75-.69-1.12-1.81-1.12-3.38v-9.5h-2.09v-2.21h2.09v-4.06h2.68v4.06h4.21v2.21h-4.21Z" style="fill:#fff;"/><path d="M259.91,192.56v12.97c0,1.82.45,3.18,1.34,4.06s2.13,1.32,3.72,1.32,2.8-.44,3.69-1.32,1.34-2.24,1.34-4.06v-12.97h2.68v12.94c0,1.71-.34,3.14-1.03,4.31s-1.61,2.03-2.78,2.6c-1.17.57-2.48.85-3.93.85s-2.76-.28-3.93-.85-2.09-1.44-2.77-2.6c-.68-1.17-1.01-2.6-1.01-4.31v-12.94h2.68Z" style="fill:#fff;"/><path d="M280.86,212.7c-.98-.42-1.75-1.01-2.32-1.76-.57-.76-.88-1.62-.94-2.6h2.76c.08.8.46,1.46,1.13,1.97s1.56.76,2.66.76c1.02,0,1.82-.23,2.41-.68.59-.45.88-1.02.88-1.71s-.31-1.23-.94-1.57c-.63-.34-1.6-.68-2.91-1.02-1.2-.31-2.17-.63-2.93-.96-.76-.32-1.4-.8-1.94-1.44-.54-.64-.81-1.48-.81-2.52,0-.82.25-1.58.74-2.27.49-.69,1.19-1.23,2.09-1.63.9-.4,1.93-.6,3.09-.6,1.78,0,3.23.45,4.32,1.35,1.1.9,1.69,2.14,1.76,3.71h-2.68c-.06-.84-.4-1.52-1.01-2.03-.62-.51-1.45-.77-2.49-.77-.96,0-1.73.21-2.29.62-.57.41-.85.95-.85,1.62,0,.53.17.97.51,1.31s.78.62,1.29.82c.52.21,1.24.44,2.16.69,1.16.31,2.1.62,2.82.93.72.3,1.35.76,1.87,1.37.52.61.79,1.4.81,2.38,0,.88-.25,1.68-.74,2.38s-1.18,1.26-2.07,1.66-1.92.6-3.07.6c-1.24,0-2.34-.21-3.32-.63Z" style="fill:#fff;"/></g></svg>