<?xml version="1.0" encoding="UTF-8"?><svg id="Layer_2" xmlns="http://www.w3.org/2000/svg" viewBox="0 0 1133.33 1133.33"><g id="Layer_1-2"><path d="M566.67,1132.83c-76.43,0-150.58-14.97-220.38-44.49-67.42-28.52-127.97-69.34-179.96-121.33-52-52-92.82-112.54-121.33-179.96C15.47,717.24.5,643.1.5,566.67s14.97-150.58,44.49-220.38c28.52-67.42,69.34-127.97,121.33-179.96,52-52,112.54-92.82,179.96-121.33C416.09,15.47,490.23.5,566.67.5s150.58,14.97,220.38,44.49c67.42,28.52,127.97,69.34,179.96,121.33s92.82,112.54,121.33,179.96c29.52,69.8,44.49,143.95,44.49,220.38s-14.97,150.58-44.49,220.38c-28.52,67.42-69.34,127.97-121.33,179.96-52,52-112.54,92.82-179.96,121.33-69.8,29.52-143.95,44.49-220.38,44.49Z" style="fill:#ce6219;"/><path d="M566.67,1c76.36,0,150.45,14.96,220.18,44.45,33.52,14.18,65.85,31.72,96.09,52.15,29.95,20.24,58.12,43.48,83.72,69.07,25.6,25.6,48.84,53.76,69.07,83.72,20.43,30.24,37.98,62.57,52.15,96.09,29.5,69.74,44.45,143.82,44.45,220.18s-14.96,150.45-44.45,220.18c-14.18,33.52-31.72,65.85-52.15,96.09-20.24,29.95-43.48,58.12-69.07,83.72s-53.76,48.84-83.72,69.07c-30.24,20.43-62.57,37.98-96.09,52.15-69.74,29.5-143.82,44.45-220.18,44.45s-150.45-14.96-220.18-44.45c-33.52-14.18-65.85-31.72-96.09-52.15-29.95-20.24-58.12-43.48-83.72-69.07-25.6-25.6-48.84-53.76-69.07-83.72-20.43-30.24-37.98-62.57-52.15-96.09C15.96,717.11,1,643.03,1,566.67s14.96-150.45,44.45-220.18c14.18-33.52,31.72-65.85,52.15-96.09,20.24-29.95,43.48-58.12,69.07-83.72,25.6-25.6,53.76-48.84,83.72-69.07,30.24-20.43,62.57-37.98,96.09-52.15C416.22,15.96,490.3,1,566.67,1M566.67,0C253.71,0,0,253.71,0,566.67s253.71,566.67,566.67,566.67,566.67-253.71,566.67-566.67S879.63,0,566.67,0h0Z" style="fill:#fff;"/></g></svg>