<?xml version="1.0" encoding="UTF-8"?><svg id="Layer_2" xmlns="http://www.w3.org/2000/svg" xmlns:xlink="http://www.w3.org/1999/xlink" viewBox="0 0 5885.38 357.1"><defs><linearGradient id="linear-gradient" x1="214.77" y1="65.43" x2="345.38" y2="291.67" gradientUnits="userSpaceOnUse"><stop offset="0" stop-color="#fff"/><stop offset=".37" stop-color="#fdfdfd" stop-opacity=".99"/><stop offset=".51" stop-color="#f6f6f6" stop-opacity=".97"/><stop offset=".6" stop-color="#eaeaea" stop-opacity=".94"/><stop offset=".68" stop-color="#d9d9d9" stop-opacity=".88"/><stop offset=".75" stop-color="#c3c3c3" stop-opacity=".81"/><stop offset=".8" stop-color="#a8a8a8" stop-opacity=".73"/><stop offset=".86" stop-color="#878787" stop-opacity=".63"/><stop offset=".91" stop-color="#626262" stop-opacity=".51"/><stop offset=".95" stop-color="#373737" stop-opacity=".37"/><stop offset=".99" stop-color="#090909" stop-opacity=".23"/><stop offset="1" stop-color="#000" stop-opacity=".2"/></linearGradient></defs><g id="Layer_1-2"><path d="M459.78,356.78c6.48-5.44,12.62-10.6,19.08-16.02-6.27-5.29-12.44-10.49-19.17-16.17,1.58,0,2.45,0,3.32,0,51.11,0,5422-.04,5422-.04l.38,32.23H459.78Z" style="fill:#61b848;"/><path d="M330.96,314.52c4.04-1.87,8.14-3.62,12.12-5.63,27.38-13.86,48.45-34.27,63.28-61.12,6.71-12.16,11.4-25.06,14.4-38.61,2.75-12.4,3.89-24.97,3.31-37.61-1.01-22.12-6.39-43.24-17.33-62.54-23.15-40.85-57.7-66.37-104.18-74.6-60.44-10.7-121.35,18.47-151.65,72-13.83,24.43-20.39,50.72-18.83,78.69,2.5,44.87,21.76,81.31,57.06,109.14,17.72,13.97,37.89,22.82,59.95,27.35,9.69,1.99,19.53,2.79,29.44,2.75,19.13-.07,38.26-.06,57.39-.05,15.29,0,30.58.04,45.86.08,31.52.08,63.03.21,94.55.26,27.88.04,55.76,0,83.65-.08,2.45,0,4.35.51,6.26,2.21,5.33,4.73,10.9,9.2,16.61,13.96-3.83,3.22-7.5,6.31-11.17,9.39-1.15.96-2.5,1.75-3.43,2.88-3.08,3.72-7.06,4.09-11.58,4.08-93.76-.09-187.52.22-281.27-.19-40.03-.18-76.03-13.34-107.5-38.11-32.57-25.64-53.77-58.81-63.63-99.06-4.83-19.71-6.01-39.76-3.79-59.95,4.91-44.68,23.99-82.34,56.9-112.81C183.71,22.58,214.76,7.17,250.34,2.13c62.33-8.83,115.61,9.79,158.95,55.35,23.59,24.8,38.07,54.6,44.44,88.31,3.38,17.88,4.11,35.86,1.83,53.84-5.79,45.53-26.09,83.49-60.6,113.8-.85.75-2.17,1.38-3.27,1.38-19.81.14-39.61.18-59.42.24-.4,0-.8-.06-1.2-.1-.03-.14-.07-.28-.1-.43Z" style="fill:#61b848;"/><path d="M.09,356.78c6.48-5.44,12.62-10.6,19.08-16.02-6.27-5.29-12.44-10.49-19.17-16.17,1.58,0,2.45,0,3.32,0,51.11,0,102.22,0,153.34-.04,1.94,0,3.42.5,4.96,1.71,16.72,13.2,35.17,23.27,55.28,30.51H.09Z" style="fill:#61b848;"/><path d="M280.08,47.95c-72.13,0-130.59,58.47-130.59,130.6s58.47,130.59,130.59,130.59,130.59-58.47,130.59-130.59-58.47-130.6-130.59-130.6" style="fill:url(#linear-gradient);"/><path d="M279.93,52.6c-69.52,0-125.87,56.36-125.87,125.88s56.35,125.87,125.87,125.87,125.87-56.35,125.87-125.87-56.35-125.88-125.87-125.88" style="fill:#e8ecec;"/><path d="M204.04,190.7v1.48h-6.06v4.7h4.92v1.48h-4.92v6.28h-1.82v-13.94h7.88Z" style="fill:#61b848;"/><path d="M218.28,201.54h-6.08l-1.12,3.1h-1.92l5.04-13.86h2.1l5.02,13.86h-1.92l-1.12-3.1ZM217.76,200.06l-2.52-7.04-2.52,7.04h5.04Z" style="fill:#61b848;"/><path d="M227.56,193.99c.61-1.09,1.45-1.94,2.51-2.55s2.24-.92,3.53-.92c1.52,0,2.85.37,3.98,1.1,1.13.73,1.96,1.77,2.48,3.12h-2.18c-.39-.84-.94-1.49-1.67-1.94-.73-.45-1.6-.68-2.61-.68s-1.85.23-2.62.68c-.77.45-1.38,1.1-1.82,1.93s-.66,1.81-.66,2.93.22,2.08.66,2.91,1.05,1.48,1.82,1.93c.77.45,1.65.68,2.62.68s1.88-.22,2.61-.67c.73-.45,1.28-1.09,1.67-1.93h2.18c-.52,1.33-1.35,2.36-2.48,3.09s-2.46,1.09-3.98,1.09c-1.29,0-2.47-.3-3.53-.91-1.06-.61-1.9-1.45-2.51-2.53s-.92-2.3-.92-3.66.31-2.58.92-3.67Z" style="fill:#61b848;"/><path d="M248.38,190.7v13.94h-1.82v-13.94h1.82Z" style="fill:#61b848;"/><path d="M257.1,203.16h4.88v1.48h-6.7v-13.94h1.82v12.46Z" style="fill:#61b848;"/><path d="M269.54,190.7v13.94h-1.82v-13.94h1.82Z" style="fill:#61b848;"/><path d="M285.02,190.7v1.48h-3.8v12.46h-1.82v-12.46h-3.82v-1.48h9.44Z" style="fill:#61b848;"/><path d="M292.88,190.7v13.94h-1.82v-13.94h1.82Z" style="fill:#61b848;"/><path d="M301.6,192.18v4.66h5.08v1.5h-5.08v4.8h5.68v1.5h-7.5v-13.96h7.5v1.5h-5.68Z" style="fill:#61b848;"/><path d="M315.79,204.29c-.73-.33-1.3-.78-1.71-1.36-.41-.58-.63-1.25-.64-2.01h1.94c.07.65.34,1.2.81,1.65.47.45,1.16.67,2.07.67s1.55-.22,2.05-.65.75-.99.75-1.67c0-.53-.15-.97-.44-1.3-.29-.33-.66-.59-1.1-.76-.44-.17-1.03-.36-1.78-.56-.92-.24-1.66-.48-2.21-.72s-1.03-.62-1.42-1.13c-.39-.51-.59-1.2-.59-2.07,0-.76.19-1.43.58-2.02.39-.59.93-1.04,1.63-1.36.7-.32,1.5-.48,2.41-.48,1.31,0,2.38.33,3.21.98.83.65,1.3,1.52,1.41,2.6h-2c-.07-.53-.35-1-.84-1.41-.49-.41-1.15-.61-1.96-.61-.76,0-1.38.2-1.86.59-.48.39-.72.94-.72,1.65,0,.51.14.92.43,1.24s.64.56,1.06.73c.42.17,1.01.36,1.77.57.92.25,1.66.5,2.22.75.56.25,1.04.63,1.44,1.14s.6,1.21.6,2.09c0,.68-.18,1.32-.54,1.92s-.89,1.09-1.6,1.46c-.71.37-1.54.56-2.5.56s-1.74-.16-2.47-.49Z" style="fill:#61b848;"/><path d="M210.3,214.8v13.84h-1.82v-10.32l-4.6,10.32h-1.28l-4.62-10.34v10.34h-1.82v-13.84h1.96l5.12,11.44,5.12-11.44h1.94Z" style="fill:#61b848;"/><path d="M225.42,225.54h-6.08l-1.12,3.1h-1.92l5.04-13.86h2.1l5.02,13.86h-1.92l-1.12-3.1ZM224.9,224.06l-2.52-7.04-2.52,7.04h5.04Z" style="fill:#61b848;"/><path d="M245.42,228.64h-1.82l-7.32-11.1v11.1h-1.82v-13.96h1.82l7.32,11.08v-11.08h1.82v13.96Z" style="fill:#61b848;"/><path d="M260.56,225.54h-6.08l-1.12,3.1h-1.92l5.04-13.86h2.1l5.02,13.86h-1.92l-1.12-3.1ZM260.04,224.06l-2.52-7.04-2.52,7.04h5.04Z" style="fill:#61b848;"/><path d="M280.16,218.74c-.39-.81-.95-1.44-1.68-1.89-.73-.45-1.59-.67-2.56-.67s-1.85.22-2.63.67c-.78.45-1.39,1.09-1.84,1.92-.45.83-.67,1.8-.67,2.89s.22,2.05.67,2.88c.45.83,1.06,1.46,1.84,1.91.78.45,1.66.67,2.63.67,1.36,0,2.48-.41,3.36-1.22.88-.81,1.39-1.91,1.54-3.3h-5.56v-1.48h7.5v1.4c-.11,1.15-.47,2.2-1.08,3.15-.61.95-1.42,1.71-2.42,2.26-1,.55-2.11.83-3.34.83-1.29,0-2.47-.3-3.54-.91-1.07-.61-1.91-1.45-2.53-2.53s-.93-2.3-.93-3.66.31-2.58.93-3.67,1.46-1.93,2.53-2.54c1.07-.61,2.25-.91,3.54-.91,1.48,0,2.79.37,3.93,1.1,1.14.73,1.97,1.77,2.49,3.1h-2.18Z" style="fill:#61b848;"/><path d="M290.78,216.18v4.66h5.08v1.5h-5.08v4.8h5.68v1.5h-7.5v-13.96h7.5v1.5h-5.68Z" style="fill:#61b848;"/><path d="M317.16,214.8v13.84h-1.82v-10.32l-4.6,10.32h-1.28l-4.62-10.34v10.34h-1.82v-13.84h1.96l5.12,11.44,5.12-11.44h1.94Z" style="fill:#61b848;"/><path d="M325.86,216.18v4.66h5.08v1.5h-5.08v4.8h5.68v1.5h-7.5v-13.96h7.5v1.5h-5.68Z" style="fill:#61b848;"/><path d="M349.06,228.64h-1.82l-7.32-11.1v11.1h-1.82v-13.96h1.82l7.32,11.08v-11.08h1.82v13.96Z" style="fill:#61b848;"/><path d="M364.54,214.7v1.48h-3.8v12.46h-1.82v-12.46h-3.82v-1.48h9.44Z" style="fill:#61b848;"/><path d="M256.14,105.99c0,13.46,10.47,24.35,24.12,24.97,2.08.09,4.01.52,4.74,2.48.49,1.32.44,3.13-.07,4.45-.73,1.88-2.66,2.31-4.62,2.26-7.85-.18-14.94-2.62-20.87-7.72-10.89-9.37-15.02-21.31-11.31-35.19,3.71-13.87,13.22-22.16,27.32-24.93,5.2-1.02,10.45-.57,15.55.97,3.23.97,4.85,3.5,4.01,6.12-.83,2.59-3.3,3.61-6.57,2.73-16.64-4.48-32.28,7.08-32.29,23.85Z" style="fill:#61b848;"/><path d="M311.16,121.62c-.18.43-.45,1.4-.94,2.22-2.82,4.71-6.62,8.48-11.32,11.33-2.72,1.65-5.58,1.12-6.97-1.23-1.36-2.29-.61-4.87,2.07-6.54,3.59-2.24,6.45-5.17,8.67-8.76,1.28-2.06,3.25-2.61,5.41-1.93,2,.63,3.05,2.19,3.08,4.91Z" style="fill:#61b848;"/><path d="M308.49,108.45c-2.57.04-4.63-1.87-4.72-4.39-.09-2.57,2.09-4.82,4.65-4.8,2.44.02,4.63,2.18,4.64,4.61.02,2.49-2.03,4.53-4.58,4.58Z" style="fill:#61b848;"/><path d="M307.12,88.3c.02,2.59-1.89,4.6-4.42,4.66-2.59.06-4.77-2.1-4.72-4.7.05-2.47,2.21-4.62,4.63-4.59,2.53.03,4.48,2.03,4.5,4.63Z" style="fill:#61b848;"/><path d="M301.88,270.56c-.04,12.2-9.69,21.8-21.89,21.79-12.1-.01-21.98-9.82-22-21.83-.02-11.97,10.28-22.22,22.17-22.06,12.09.16,21.76,10,21.73,22.11ZM275.79,256.75c-1.9,5.97.33,10.33,5.57,13.81-5.4,3.45-7.37,7.81-5.72,13.29,4.48-4.55,9.03-9.19,13.37-13.61-4.07-4.15-8.58-8.75-13.23-13.48Z" style="fill:#61b848;"/><path d="M189.7,157.57v16.98h-2.22v-16.98h2.22Z"/><path d="M211.45,174.54h-2.22l-8.91-13.52v13.52h-2.22v-17h2.22l8.91,13.5v-13.5h2.22v17Z"/><path d="M230.3,157.57v1.8h-4.63v15.18h-2.22v-15.18h-4.65v-1.8h11.5Z"/><path d="M239.88,159.37v5.68h6.19v1.83h-6.19v5.85h6.92v1.83h-9.13v-17h9.13v1.83h-6.92Z"/><path d="M263.72,174.54l-4.04-6.94h-2.68v6.94h-2.22v-16.98h5.48c1.28,0,2.37.22,3.25.66.88.44,1.55,1.03,1.98,1.78.44.75.66,1.6.66,2.56,0,1.17-.34,2.2-1.01,3.09-.67.89-1.68,1.49-3.03,1.78l4.26,7.11h-2.66ZM257,165.82h3.26c1.2,0,2.1-.3,2.7-.89s.9-1.38.9-2.38-.3-1.79-.89-2.34c-.59-.55-1.5-.83-2.72-.83h-3.26v6.43Z"/><path d="M276.44,172.74h5.94v1.8h-8.16v-16.98h2.22v15.18Z"/><path d="M291.59,157.57v16.98h-2.22v-16.98h2.22Z"/><path d="M313.34,174.54h-2.22l-8.91-13.52v13.52h-2.22v-17h2.22l8.91,13.5v-13.5h2.22v17Z"/><path d="M330.95,174.54l-6.99-7.75v7.75h-2.22v-16.98h2.22v7.87l7.02-7.87h2.8l-7.7,8.5,7.77,8.48h-2.9Z"/><path d="M343.18,159.37v5.68h6.19v1.83h-6.19v5.85h6.92v1.83h-9.13v-17h9.13v1.83h-6.92Z"/><path d="M368.18,158.6c1.36.69,2.4,1.68,3.12,2.96.72,1.28,1.08,2.79,1.08,4.53s-.36,3.24-1.08,4.52c-.72,1.28-1.76,2.25-3.12,2.92-1.36.67-2.96,1.01-4.81,1.01h-5.29v-16.98h5.29c1.85,0,3.45.34,4.81,1.04ZM368.39,170.98c1.15-1.16,1.73-2.79,1.73-4.88s-.58-3.76-1.74-4.94-2.83-1.78-5.01-1.78h-3.07v13.35h3.07c2.19,0,3.86-.58,5.02-1.74Z"/></g></svg>