<?xml version="1.0" encoding="UTF-8"?><svg id="Layer_2" xmlns="http://www.w3.org/2000/svg" viewBox="0 0 388.77 402"><g id="Layer_1-2"><g style="opacity:.65;"><path d="M201,402C90.17,402,0,311.83,0,201S90.17,0,201,0c22.05,0,43.73,3.55,64.45,10.56,14.14,4.78,21.73,20.13,16.94,34.28-4.78,14.15-20.16,21.73-34.28,16.95-15.12-5.12-30.97-7.71-47.11-7.71-81.01,0-146.92,65.91-146.92,146.92s65.91,146.92,146.92,146.92c14.93,0,27.04,12.11,27.04,27.04s-12.11,27.04-27.04,27.04" style="fill:#fff;"/><path d="M288.25,378.59c-9.32,0-18.4-4.83-23.41-13.47-7.5-12.92-3.11-29.47,9.81-36.97,21.86-12.69,40.19-30.91,53.03-52.68,7.58-12.86,24.15-17.15,37.03-9.57s17.16,24.16,9.57,37.03c-17.53,29.76-42.59,54.65-72.46,72-4.27,2.48-8.95,3.66-13.55,3.66" style="fill:#fff;"/><path d="M300.32,97.12c0-15.01,12.17-27.18,27.18-27.18s27.18,12.17,27.18,27.18-12.17,27.18-27.18,27.18-27.18-12.17-27.18-27.18" style="fill:#fff;"/><path d="M334.42,188.63c0-15.01,12.17-27.18,27.18-27.18s27.18,12.17,27.18,27.18-12.17,27.18-27.18,27.18-27.18-12.17-27.18-27.18" style="fill:#fff;"/></g><path d="M317.39,201.33c0,63.56-51.58,115.14-115.14,115.14s-115.14-51.58-115.14-115.14,51.58-115.14,115.14-115.14,115.14,51.58,115.14,115.14" style="fill-rule:evenodd;"/><path d="M142.32,190.84l-5.45,18.82h-2.75l-4.37-15.15-4.54,15.15-2.73.03-5.27-18.85h2.62l4.1,15.96,4.54-15.96h2.75l4.32,15.9,4.13-15.9h2.65Z" style="fill:#fff;"/><path d="M159.63,203.18h-11.83c.09,1.46.59,2.6,1.5,3.42.91.82,2.01,1.23,3.31,1.23,1.06,0,1.95-.25,2.66-.74.71-.49,1.21-1.16,1.5-1.98h2.65c-.4,1.42-1.19,2.58-2.38,3.47-1.19.89-2.66,1.34-4.43,1.34-1.4,0-2.66-.31-3.77-.95-1.11-.63-1.98-1.53-2.61-2.69-.63-1.16-.95-2.51-.95-4.04s.31-2.87.92-4.02c.61-1.15,1.47-2.04,2.58-2.66,1.11-.62,2.38-.93,3.82-.93s2.65.31,3.73.92c1.08.61,1.91,1.45,2.5,2.52.58,1.07.88,2.28.88,3.63,0,.47-.03.96-.08,1.48ZM156.55,198.76c-.41-.67-.98-1.19-1.69-1.54s-1.5-.53-2.36-.53c-1.24,0-2.3.4-3.17,1.19-.87.79-1.37,1.89-1.5,3.29h9.34c0-.94-.21-1.74-.62-2.42Z" style="fill:#fff;"/><path d="M166.62,189.68v19.98h-2.46v-19.98h2.46Z" style="fill:#fff;"/><path d="M172.02,198.22c.61-1.14,1.46-2.03,2.55-2.66,1.09-.63,2.33-.94,3.74-.94,1.82,0,3.32.44,4.5,1.32,1.18.88,1.96,2.11,2.33,3.67h-2.65c-.25-.9-.74-1.61-1.47-2.13-.73-.52-1.63-.78-2.71-.78-1.4,0-2.54.48-3.4,1.44-.86.96-1.3,2.33-1.3,4.09s.43,3.16,1.3,4.13c.86.97,2,1.46,3.4,1.46,1.08,0,1.98-.25,2.7-.76s1.21-1.22,1.49-2.16h2.65c-.4,1.51-1.19,2.72-2.38,3.63-1.19.91-2.67,1.36-4.46,1.36-1.4,0-2.65-.31-3.74-.95-1.09-.63-1.94-1.52-2.55-2.67-.61-1.15-.92-2.5-.92-4.05s.31-2.87.92-4.01Z" style="fill:#fff;"/><path d="M192.29,208.96c-1.13-.63-2.01-1.53-2.65-2.69-.64-1.16-.96-2.51-.96-4.04s.33-2.85.99-4.01c.66-1.16,1.55-2.05,2.69-2.67s2.4-.93,3.81-.93,2.67.31,3.81.93,2.03,1.51,2.69,2.66c.66,1.15.99,2.49.99,4.02s-.34,2.88-1.01,4.04c-.67,1.16-1.59,2.06-2.74,2.69-1.15.63-2.43.95-3.83.95s-2.64-.31-3.77-.95ZM198.54,207.12c.77-.41,1.4-1.03,1.88-1.86.48-.83.72-1.84.72-3.02s-.23-2.2-.7-3.02c-.47-.83-1.08-1.44-1.84-1.85-.76-.41-1.58-.61-2.46-.61s-1.72.2-2.47.61c-.75.4-1.35,1.02-1.8,1.85-.45.83-.67,1.84-.67,3.02s.22,2.22.66,3.05c.44.83,1.03,1.44,1.77,1.85.74.4,1.55.61,2.43.61s1.71-.21,2.48-.62Z" style="fill:#fff;"/><path d="M228.97,195.31c.9.48,1.61,1.19,2.13,2.15.52.95.78,2.12.78,3.48v8.72h-2.43v-8.37c0-1.48-.36-2.61-1.09-3.39-.73-.78-1.71-1.17-2.96-1.17s-2.29.41-3.05,1.23c-.76.82-1.13,2-1.13,3.55v8.15h-2.43v-8.37c0-1.48-.37-2.61-1.09-3.39-.73-.78-1.71-1.17-2.96-1.17s-2.29.41-3.05,1.23c-.76.82-1.13,2-1.13,3.55v8.15h-2.46v-14.8h2.46v2.13c.49-.77,1.14-1.37,1.96-1.78s1.72-.62,2.71-.62c1.24,0,2.34.28,3.29.84.95.56,1.67,1.38,2.13,2.46.41-1.04,1.1-1.85,2.05-2.43.95-.58,2.02-.86,3.19-.86s2.18.24,3.08.72Z" style="fill:#fff;"/><path d="M250.51,203.18h-11.83c.09,1.46.59,2.6,1.5,3.42.91.82,2.01,1.23,3.31,1.23,1.06,0,1.95-.25,2.66-.74.71-.49,1.21-1.16,1.5-1.98h2.65c-.4,1.42-1.19,2.58-2.38,3.47-1.19.89-2.66,1.34-4.43,1.34-1.4,0-2.66-.31-3.77-.95-1.11-.63-1.98-1.53-2.61-2.69-.63-1.16-.95-2.51-.95-4.04s.31-2.87.92-4.02c.61-1.15,1.47-2.04,2.58-2.66,1.11-.62,2.38-.93,3.82-.93s2.65.31,3.73.92c1.08.61,1.91,1.45,2.5,2.52.58,1.07.88,2.28.88,3.63,0,.47-.03.96-.08,1.48ZM247.43,198.76c-.41-.67-.98-1.19-1.69-1.54s-1.5-.53-2.36-.53c-1.24,0-2.3.4-3.17,1.19-.87.79-1.37,1.89-1.5,3.29h9.34c0-.94-.21-1.74-.62-2.42Z" style="fill:#fff;"/><path d="M266.44,196.89v8.72c0,.72.15,1.23.46,1.53.31.3.84.45,1.59.45h1.81v2.08h-2.21c-1.37,0-2.39-.31-3.08-.94-.68-.63-1.03-1.67-1.03-3.1v-8.72h-1.92v-2.02h1.92v-3.73h2.46v3.73h3.86v2.02h-3.86Z" style="fill:#fff;"/><path d="M277.17,208.96c-1.12-.63-2.01-1.53-2.65-2.69-.64-1.16-.96-2.51-.96-4.04s.33-2.85.99-4.01,1.55-2.05,2.69-2.67,2.4-.93,3.81-.93,2.67.31,3.81.93,2.03,1.51,2.69,2.66c.66,1.15.99,2.49.99,4.02s-.34,2.88-1.01,4.04c-.67,1.16-1.59,2.06-2.74,2.69-1.15.63-2.43.95-3.83.95s-2.64-.31-3.77-.95ZM283.42,207.12c.77-.41,1.4-1.03,1.88-1.86.48-.83.72-1.84.72-3.02s-.23-2.2-.7-3.02c-.47-.83-1.08-1.44-1.84-1.85-.76-.41-1.58-.61-2.46-.61s-1.72.2-2.47.61c-.75.4-1.35,1.02-1.8,1.85-.45.83-.67,1.84-.67,3.02s.22,2.22.66,3.05c.44.83,1.03,1.44,1.77,1.85.74.4,1.55.61,2.43.61s1.71-.21,2.48-.62Z" style="fill:#fff;"/><path d="M123.21,222.01v18.82h-2.46v-18.82h2.46Z" style="fill:#fff;"/><path d="M143.4,240.82h-2.46l-9.88-14.98v14.98h-2.46v-18.85h2.46l9.88,14.96v-14.96h2.46v18.85Z" style="fill:#fff;"/><path d="M160.39,222.01v2h-5.13v16.82h-2.46v-16.82h-5.16v-2h12.74Z" style="fill:#fff;"/><path d="M167.08,224v6.29h6.86v2.02h-6.86v6.48h7.67v2.02h-10.12v-18.85h10.12v2.03h-7.67Z" style="fill:#fff;"/><path d="M189.6,240.82l-4.48-7.69h-2.97v7.69h-2.46v-18.82h6.08c1.42,0,2.62.24,3.6.73.98.49,1.71,1.14,2.2,1.97.49.83.73,1.77.73,2.83,0,1.3-.37,2.44-1.12,3.43-.75.99-1.87,1.65-3.36,1.97l4.73,7.88h-2.94ZM182.15,231.16h3.62c1.33,0,2.33-.33,3-.99s1-1.53,1-2.63-.33-1.98-.99-2.59c-.66-.61-1.66-.92-3.01-.92h-3.62v7.13Z" style="fill:#fff;"/><path d="M199.78,238.83h6.59v2h-9.04v-18.82h2.46v16.82Z" style="fill:#fff;"/><path d="M212.66,222.01v18.82h-2.46v-18.82h2.46Z" style="fill:#fff;"/><path d="M232.85,240.82h-2.46l-9.88-14.98v14.98h-2.46v-18.85h2.46l9.88,14.96v-14.96h2.46v18.85Z" style="fill:#fff;"/><path d="M248.46,240.82l-7.75-8.59v8.59h-2.46v-18.82h2.46v8.72l7.78-8.72h3.11l-8.53,9.42,8.61,9.4h-3.21Z" style="fill:#fff;"/><path d="M258.1,224v6.29h6.86v2.02h-6.86v6.48h7.67v2.02h-10.12v-18.85h10.12v2.03h-7.67Z" style="fill:#fff;"/><path d="M281.9,223.15c1.5.77,2.66,1.86,3.46,3.28.8,1.42,1.2,3.1,1.2,5.02s-.4,3.6-1.2,5.01-1.95,2.49-3.46,3.24c-1.5.75-3.28,1.12-5.33,1.12h-5.86v-18.82h5.86c2.05,0,3.83.38,5.33,1.15ZM282.13,236.87c1.28-1.29,1.92-3.09,1.92-5.41s-.64-4.17-1.93-5.48c-1.29-1.31-3.14-1.97-5.55-1.97h-3.4v14.8h3.4c2.43,0,4.28-.64,5.56-1.93Z" style="fill:#fff;"/><path d="M202.57,155.58c-6.9,0-12.52-5.61-12.52-12.52s5.61-12.51,12.52-12.51c1.37,0,2.72.22,4.01.66.88.3,1.35,1.25,1.06,2.13-.3.88-1.25,1.35-2.13,1.06-.94-.32-1.93-.48-2.93-.48-5.05,0-9.15,4.1-9.15,9.15s4.1,9.15,9.15,9.15c.93,0,1.68.75,1.68,1.68s-.75,1.68-1.68,1.68Z" style="fill:#de242b;"/><path d="M208.01,154.12c-.58,0-1.14-.3-1.46-.84-.47-.8-.19-1.83.61-2.3,1.36-.79,2.5-1.92,3.3-3.28.47-.8,1.5-1.07,2.31-.6.8.47,1.07,1.5.6,2.31-1.09,1.85-2.65,3.4-4.51,4.48-.27.15-.56.23-.84.23Z" style="fill:#de242b;"/><path d="M208.76,136.59c0-.93.76-1.69,1.69-1.69s1.69.76,1.69,1.69-.76,1.69-1.69,1.69-1.69-.76-1.69-1.69" style="fill:#de242b;"/><path d="M210.88,142.29c0-.93.76-1.69,1.69-1.69s1.69.76,1.69,1.69-.76,1.69-1.69,1.69-1.69-.76-1.69-1.69" style="fill:#de242b;"/><path d="M235.74,155.58c-6.9,0-12.52-5.61-12.52-12.52s5.61-12.51,12.52-12.51c1.37,0,2.72.22,4.01.66.88.3,1.35,1.25,1.06,2.13-.3.88-1.25,1.35-2.13,1.06-.94-.32-1.93-.48-2.93-.48-5.05,0-9.15,4.1-9.15,9.15s4.1,9.15,9.15,9.15c.93,0,1.68.75,1.68,1.68s-.75,1.68-1.68,1.68Z" style="fill:#61b946;"/><path d="M241.17,154.12c-.58,0-1.14-.3-1.46-.84-.47-.8-.19-1.83.61-2.3,1.36-.79,2.5-1.92,3.3-3.28.47-.8,1.5-1.07,2.31-.6.8.47,1.07,1.5.6,2.31-1.09,1.85-2.65,3.4-4.51,4.48-.27.15-.56.23-.84.23Z" style="fill:#61b946;"/><path d="M241.93,136.59c0-.93.76-1.69,1.69-1.69s1.69.76,1.69,1.69-.76,1.69-1.69,1.69-1.69-.76-1.69-1.69" style="fill:#61b946;"/><path d="M244.05,142.29c0-.93.76-1.69,1.69-1.69s1.69.76,1.69,1.69-.76,1.69-1.69,1.69-1.69-.76-1.69-1.69" style="fill:#61b946;"/><path d="M169.59,155.58c-6.9,0-12.52-5.61-12.52-12.52s5.61-12.51,12.52-12.51c1.37,0,2.72.22,4.01.66.88.3,1.35,1.25,1.06,2.13-.3.88-1.25,1.35-2.13,1.06-.94-.32-1.93-.48-2.93-.48-5.05,0-9.15,4.1-9.15,9.15s4.1,9.15,9.15,9.15c.93,0,1.68.75,1.68,1.68s-.75,1.68-1.68,1.68Z" style="fill:#3571b8;"/><path d="M175.02,154.12c-.58,0-1.14-.3-1.46-.84-.47-.8-.19-1.83.61-2.3,1.36-.79,2.5-1.92,3.3-3.28.47-.8,1.5-1.07,2.31-.6.8.47,1.07,1.5.6,2.31-1.09,1.85-2.65,3.4-4.51,4.48-.27.15-.56.23-.84.23Z" style="fill:#3571b8;"/><path d="M175.78,136.59c0-.93.76-1.69,1.69-1.69s1.69.76,1.69,1.69-.76,1.69-1.69,1.69-1.69-.76-1.69-1.69" style="fill:#3571b8;"/><path d="M177.9,142.29c0-.93.76-1.69,1.69-1.69s1.69.76,1.69,1.69-.76,1.69-1.69,1.69-1.69-.76-1.69-1.69" style="fill:#3571b8;"/></g></svg>