<?xml version="1.0" encoding="UTF-8"?><svg id="Layer_2" xmlns="http://www.w3.org/2000/svg" viewBox="0 0 45.61 47.15"><g id="Layer_1-2"><path d="M23.58,47.15C10.58,47.15,0,36.58,0,23.58S10.58,0,23.58,0c2.59,0,5.13.42,7.56,1.24,1.66.56,2.55,2.36,1.99,4.02-.56,1.66-2.36,2.55-4.02,1.99-1.77-.6-3.63-.9-5.53-.9-9.5,0-17.24,7.73-17.24,17.23s7.73,17.24,17.24,17.24c1.75,0,3.17,1.42,3.17,3.17s-1.42,3.17-3.17,3.17Z" style="fill:#de242b;"/><path d="M33.81,44.41c-1.09,0-2.16-.57-2.75-1.58-.88-1.52-.36-3.46,1.15-4.34,2.56-1.49,4.71-3.63,6.22-6.18.89-1.51,2.83-2.01,4.34-1.12,1.51.89,2.01,2.83,1.12,4.34-2.06,3.49-5,6.41-8.5,8.44-.5.29-1.05.43-1.59.43Z" style="fill:#de242b;"/><path d="M35.23,11.39c0-1.76,1.43-3.19,3.19-3.19s3.19,1.43,3.19,3.19-1.43,3.19-3.19,3.19-3.19-1.43-3.19-3.19" style="fill:#de242b;"/><path d="M39.23,22.12c0-1.76,1.43-3.19,3.19-3.19s3.19,1.43,3.19,3.19-1.43,3.19-3.19,3.19-3.19-1.43-3.19-3.19" style="fill:#de242b;"/></g></svg>