<?xml version="1.0" encoding="UTF-8"?><svg id="Layer_2" xmlns="http://www.w3.org/2000/svg" viewBox="0 0 487.5 80.57"><g id="Layer_2-2"><path d="M116.26,4.18v39.05c-1.12,0-2.17.07-3.21-.04-.38-.04-.78-.44-1.05-.77-6.81-8.57-13.61-17.15-20.41-25.73-1.35-1.7-2.71-3.4-4.27-5.35v31.82h-3.96V4.22c2.14-.65,3.15-.36,4.45,1.3,7.96,10.08,15.92,20.15,23.88,30.23.15.19.32.36.68.76V4.17h3.89Z" style="fill:#fff;"/><path d="M353.6,43.13c-.2.05-.28.08-.36.09-2.27.43-3.72-.46-5.16-2.32-7.58-9.78-15.33-19.44-23.03-29.13-.05-.06-.13-.09-.34-.22v31.6h-3.97V4.23c1.96-.67,3.13-.37,4.35,1.17,8.02,10.14,16.03,20.28,24.05,30.42.13.16.28.31.6.67V4.15h3.87v38.97h-.01Z" style="fill:#fff;"/><path d="M455.13,43.21V4.11c.32-.05.56-.11.8-.11,5.03.03,10.07-.15,15.07.17,6.95.45,12.01,3.96,14.67,10.46,2.37,5.79,2.44,11.76.2,17.58-2.65,6.91-8.06,10.46-15.31,10.94-5.09.34-10.21.06-15.43.06h0ZM459.13,39.74c3.47,0,6.88.07,10.29-.02,5.44-.13,9.49-2.61,12.03-7.43,2.06-3.91,2.31-8.1,1.71-12.38-.89-6.42-5.31-11.35-11.58-12.12-4.04-.5-8.17-.17-12.27-.2-.06,0-.12.09-.19.15v32.01h0Z" style="fill:#fff;"/><path d="M235.72,28.34c3.08,4.83,6.21,9.75,9.49,14.89-1.5,0-2.78.06-4.05-.04-.34-.03-.73-.49-.96-.84-2.69-4.16-5.39-8.33-8.02-12.54-.49-.79-1.02-1.04-1.92-1.02-3.38.05-6.75.02-10.26.02v14.33h-4.02V4.14c.21-.06.36-.14.52-.14,5.53,0,11.07-.1,16.6.06,4.91.14,8.08,2.98,10.12,7.21,2.46,5.09.77,11.98-3.77,15.16-1.11.78-2.44,1.26-3.73,1.9h0ZM220.02,7.51v17.79c4.52,0,8.96.03,13.39-.03.77-.01,1.59-.29,2.29-.64,3.06-1.53,4.28-4.25,4.62-7.47.52-4.89-3.24-10.11-8.79-9.69-2.82.21-5.66.04-8.49.04h-3.02,0Z" style="fill:#fff;"/><path d="M178.88,24.82v14.87h22.45v3.46h-26.4V4.08h25.91v3.43h-21.94v14.01h19.09v3.31h-19.11Z" style="fill:#fff;"/><path d="M418.04,21.56h19.09v3.26h-19.06v14.87h22.41v3.46h-26.4V4.08h25.91v3.43h-21.94v14.06h-.01Z" style="fill:#fff;"/><path d="M370.94,4.05h3.86v22.28c.14.1.28.2.42.3.54-.65,1.05-1.34,1.63-1.95,6.27-6.65,12.56-13.28,18.83-19.94.6-.64,1.21-.94,2.09-.87.91.07,1.84.02,3.15.02-5.51,5.91-10.8,11.58-16.16,17.32,5.58,7.27,11.15,14.53,16.9,22.02-1.54,0-2.83.09-4.1-.05-.42-.04-.86-.6-1.17-1.01-4.58-5.98-9.14-11.98-13.71-17.97-.12-.16-.28-.3-.25-.27-1.85,1.72-3.61,3.48-5.5,5.07-1.73,1.47-2.24,3.2-2.1,5.42.19,2.88.05,5.78.05,8.74h-3.93V4.05h0Z" style="fill:#fff;"/><path d="M147.57,43.19h-3.92V7.53h-14.01v-3.44h31.93v3.34h-14v35.75h0Z" style="fill:#fff;"/><path d="M286.41,43.19h-26.54V4.11h3.9v35.59h22.64v3.48h0Z" style="fill:#fff;"/><path d="M66.18,43.2h-3.86V4.12h3.86v39.08Z" style="fill:#fff;"/><path d="M299.44,4.07h3.85v39.08h-3.85V4.07Z" style="fill:#fff;"/><path d="M23.58,47.15C10.58,47.15,0,36.58,0,23.58S10.58,0,23.58,0c2.59,0,5.13.42,7.56,1.24,1.66.56,2.55,2.36,1.99,4.02-.56,1.66-2.36,2.55-4.02,1.99-1.77-.6-3.63-.9-5.53-.9-9.5,0-17.24,7.73-17.24,17.23s7.73,17.24,17.24,17.24c1.75,0,3.17,1.42,3.17,3.17s-1.42,3.17-3.17,3.17h0Z" style="fill:#3571b8;"/><path d="M33.81,44.41c-1.09,0-2.16-.57-2.75-1.58-.88-1.52-.36-3.46,1.15-4.34,2.56-1.49,4.71-3.63,6.22-6.18.89-1.51,2.83-2.01,4.34-1.12,1.51.89,2.01,2.83,1.12,4.34-2.06,3.49-5,6.41-8.5,8.44-.5.29-1.05.43-1.59.43h0Z" style="fill:#3571b8;"/><path d="M35.23,11.39c0-1.76,1.43-3.19,3.19-3.19s3.19,1.43,3.19,3.19-1.43,3.19-3.19,3.19-3.19-1.43-3.19-3.19" style="fill:#3571b8;"/><path d="M39.23,22.12c0-1.76,1.43-3.19,3.19-3.19s3.19,1.43,3.19,3.19-1.43,3.19-3.19,3.19-3.19-1.43-3.19-3.19" style="fill:#3571b8;"/><path d="M197.31,70.23h-8.31v7.71h9.27v2.32h-12.03v-21.39h11.55v2.32h-8.79v6.76h8.31v2.28Z" style="fill:#3571b8;"/><path d="M201.86,58.86h2.76v19.07h9.14v2.32h-11.9v-21.39Z" style="fill:#3571b8;"/><path d="M227.92,70.23h-8.31v7.71h9.27v2.32h-12.03v-21.39h11.55v2.32h-8.79v6.76h8.31v2.28Z" style="fill:#3571b8;"/><path d="M247.41,79.56c-1.02.51-3.05,1.02-5.65,1.02-6.03,0-10.57-3.81-10.57-10.82s4.54-11.24,11.17-11.24c2.67,0,4.35.57,5.08.95l-.67,2.25c-1.05-.51-2.54-.89-4.32-.89-5.01,0-8.35,3.2-8.35,8.82,0,5.24,3.01,8.6,8.22,8.6,1.68,0,3.4-.35,4.51-.89l.57,2.19Z" style="fill:#3571b8;"/><path d="M255.83,61.21h-6.51v-2.35h15.84v2.35h-6.54v19.04h-2.79v-19.04Z" style="fill:#3571b8;"/><path d="M267.55,59.15c1.4-.29,3.4-.44,5.3-.44,2.95,0,4.86.54,6.19,1.74,1.08.95,1.68,2.41,1.68,4.06,0,2.83-1.78,4.7-4.03,5.46v.1c1.65.57,2.63,2.09,3.14,4.32.7,2.98,1.21,5.05,1.65,5.87h-2.86c-.35-.6-.83-2.44-1.43-5.11-.63-2.95-1.78-4.06-4.28-4.16h-2.6v9.27h-2.76v-21.1ZM270.31,68.89h2.82c2.95,0,4.82-1.62,4.82-4.06,0-2.76-2-3.97-4.92-4-1.33,0-2.28.13-2.73.25v7.81Z" style="fill:#3571b8;"/><path d="M287.4,58.86v21.39h-2.76v-21.39h2.76Z" style="fill:#3571b8;"/><path d="M307.17,79.56c-1.02.51-3.05,1.02-5.65,1.02-6.03,0-10.57-3.81-10.57-10.82s4.54-11.24,11.17-11.24c2.67,0,4.35.57,5.08.95l-.67,2.25c-1.05-.51-2.54-.89-4.32-.89-5.01,0-8.35,3.2-8.35,8.82,0,5.24,3.01,8.6,8.22,8.6,1.68,0,3.4-.35,4.51-.89l.57,2.19Z" style="fill:#3571b8;"/><path d="M314.23,73.53l-2.22,6.73h-2.86l7.27-21.39h3.33l7.3,21.39h-2.95l-2.28-6.73h-7.59ZM321.24,71.37l-2.09-6.16c-.48-1.4-.79-2.67-1.11-3.9h-.06c-.32,1.27-.67,2.57-1.08,3.87l-2.09,6.19h6.44Z" style="fill:#3571b8;"/><path d="M330.2,58.86h2.76v19.07h9.14v2.32h-11.9v-21.39Z" style="fill:#3571b8;"/><path d="M358.3,70.64v2.06h-7.84v-2.06h7.84Z" style="fill:#3571b8;"/><path d="M368.4,59.15c1.68-.25,3.68-.44,5.87-.44,3.97,0,6.79.92,8.66,2.67,1.9,1.74,3.02,4.22,3.02,7.68s-1.08,6.35-3.08,8.31c-2,2-5.3,3.08-9.46,3.08-1.97,0-3.62-.1-5.01-.26v-21.04ZM371.16,78.07c.7.13,1.71.16,2.79.16,5.9,0,9.11-3.3,9.11-9.08.03-5.05-2.82-8.25-8.66-8.25-1.43,0-2.51.13-3.24.29v16.88Z" style="fill:#3571b8;"/><path d="M392.56,73.53l-2.22,6.73h-2.86l7.27-21.39h3.33l7.3,21.39h-2.95l-2.29-6.73h-7.58ZM399.57,71.37l-2.09-6.16c-.48-1.4-.79-2.67-1.11-3.9h-.06c-.32,1.27-.67,2.57-1.08,3.87l-2.09,6.19h6.44Z" style="fill:#3571b8;"/><path d="M410.15,61.21h-6.51v-2.35h15.84v2.35h-6.54v19.04h-2.79v-19.04Z" style="fill:#3571b8;"/><path d="M422.95,73.53l-2.22,6.73h-2.86l7.27-21.39h3.33l7.3,21.39h-2.95l-2.28-6.73h-7.59ZM429.96,71.37l-2.09-6.16c-.48-1.4-.79-2.67-1.11-3.9h-.06c-.32,1.27-.67,2.57-1.08,3.87l-2.09,6.19h6.44Z" style="fill:#3571b8;"/><path d="M452.03,70.64v2.06h-7.84v-2.06h7.84Z" style="fill:#3571b8;"/><path d="M464.89,58.86v21.39h-2.76v-21.39h2.76Z" style="fill:#3571b8;"/><path d="M473.78,61.21h-6.51v-2.35h15.84v2.35h-6.54v19.04h-2.79v-19.04Z" style="fill:#3571b8;"/></g></svg>