<?xml version="1.0" encoding="UTF-8"?><svg id="Layer_2" xmlns="http://www.w3.org/2000/svg" viewBox="0 0 487.5 80.43"><g id="Layer_2-2"><path d="M116.26,4.18v39.05c-1.12,0-2.17.07-3.21-.04-.38-.04-.78-.44-1.05-.77-6.81-8.57-13.61-17.15-20.41-25.73-1.35-1.7-2.71-3.4-4.27-5.35v31.82h-3.96V4.22c2.14-.65,3.15-.36,4.45,1.3,7.96,10.08,15.92,20.15,23.88,30.23.15.19.32.36.68.76V4.17h3.89Z" style="fill:#fff;"/><path d="M353.6,43.13c-.2.05-.28.08-.36.09-2.27.43-3.72-.46-5.16-2.32-7.58-9.78-15.33-19.44-23.03-29.13-.05-.06-.13-.09-.34-.22v31.6h-3.97V4.23c1.96-.67,3.13-.37,4.35,1.17,8.02,10.14,16.03,20.28,24.05,30.42.13.16.28.31.6.67V4.15h3.87v38.97h-.01Z" style="fill:#fff;"/><path d="M455.13,43.21V4.11c.32-.05.56-.11.8-.11,5.03.03,10.07-.15,15.07.17,6.95.45,12.01,3.96,14.67,10.46,2.37,5.79,2.44,11.76.2,17.58-2.65,6.91-8.06,10.46-15.31,10.94-5.09.34-10.21.06-15.43.06h0ZM459.13,39.74c3.47,0,6.88.07,10.29-.02,5.44-.13,9.49-2.61,12.03-7.43,2.06-3.91,2.31-8.1,1.71-12.38-.89-6.42-5.31-11.35-11.58-12.12-4.04-.5-8.17-.17-12.27-.2-.06,0-.12.09-.19.15v32.01h0Z" style="fill:#fff;"/><path d="M235.72,28.34c3.08,4.83,6.21,9.75,9.49,14.89-1.5,0-2.78.06-4.05-.04-.34-.03-.73-.49-.96-.84-2.69-4.16-5.39-8.33-8.02-12.54-.49-.79-1.02-1.04-1.92-1.02-3.38.05-6.75.02-10.26.02v14.33h-4.02V4.14c.21-.06.36-.14.52-.14,5.53,0,11.07-.1,16.6.06,4.91.14,8.08,2.98,10.12,7.21,2.46,5.09.77,11.98-3.77,15.16-1.11.78-2.44,1.26-3.73,1.9h0ZM220.02,7.51v17.79c4.52,0,8.96.03,13.39-.03.77-.01,1.59-.29,2.29-.64,3.06-1.53,4.28-4.25,4.62-7.47.52-4.89-3.24-10.11-8.79-9.69-2.82.21-5.66.04-8.49.04h-3.02,0Z" style="fill:#fff;"/><path d="M178.88,24.82v14.87h22.45v3.46h-26.4V4.08h25.91v3.43h-21.94v14.01h19.09v3.31h-19.11Z" style="fill:#fff;"/><path d="M418.04,21.56h19.09v3.26h-19.06v14.87h22.41v3.46h-26.4V4.08h25.91v3.43h-21.94v14.06h-.01Z" style="fill:#fff;"/><path d="M370.94,4.05h3.86v22.28c.14.1.28.2.42.3.54-.65,1.05-1.34,1.63-1.95,6.27-6.65,12.56-13.28,18.83-19.94.6-.64,1.21-.94,2.09-.87.91.07,1.84.02,3.15.02-5.51,5.91-10.8,11.58-16.16,17.32,5.58,7.27,11.15,14.53,16.9,22.02-1.54,0-2.83.09-4.1-.05-.42-.04-.86-.6-1.17-1.01-4.58-5.98-9.14-11.98-13.71-17.97-.12-.16-.28-.3-.25-.27-1.85,1.72-3.61,3.48-5.5,5.07-1.73,1.47-2.24,3.2-2.1,5.42.19,2.88.05,5.78.05,8.74h-3.93V4.05h0Z" style="fill:#fff;"/><path d="M147.57,43.19h-3.92V7.53h-14.01v-3.44h31.93v3.34h-14v35.75h0Z" style="fill:#fff;"/><path d="M286.41,43.19h-26.54V4.11h3.9v35.59h22.64v3.48h0Z" style="fill:#fff;"/><path d="M66.18,43.2h-3.86V4.12h3.86v39.08Z" style="fill:#fff;"/><path d="M299.44,4.07h3.85v39.08h-3.85V4.07Z" style="fill:#fff;"/><path d="M23.58,47.15C10.58,47.15,0,36.58,0,23.58S10.58,0,23.58,0c2.59,0,5.13.42,7.56,1.24,1.66.56,2.55,2.36,1.99,4.02-.56,1.66-2.36,2.55-4.02,1.99-1.77-.6-3.63-.9-5.53-.9-9.5,0-17.24,7.73-17.24,17.23s7.73,17.24,17.24,17.24c1.75,0,3.17,1.42,3.17,3.17s-1.42,3.17-3.17,3.17h0Z" style="fill:#de242b;"/><path d="M33.81,44.41c-1.09,0-2.16-.57-2.75-1.58-.88-1.52-.36-3.46,1.15-4.34,2.56-1.49,4.71-3.63,6.22-6.18.89-1.51,2.83-2.01,4.34-1.12,1.51.89,2.01,2.83,1.12,4.34-2.06,3.49-5,6.41-8.5,8.44-.5.29-1.05.43-1.59.43h0Z" style="fill:#de242b;"/><path d="M35.23,11.39c0-1.76,1.43-3.19,3.19-3.19s3.19,1.43,3.19,3.19-1.43,3.19-3.19,3.19-3.19-1.43-3.19-3.19" style="fill:#de242b;"/><path d="M39.23,22.12c0-1.76,1.43-3.19,3.19-3.19s3.19,1.43,3.19,3.19-1.43,3.19-3.19,3.19-3.19-1.43-3.19-3.19" style="fill:#de242b;"/><path d="M265.47,58.19h11.78v2.37h-8.96v7.27h8.28v2.34h-8.28v9.9h-2.82v-21.88Z" style="fill:#de242b;"/><path d="M284.11,58.19v21.88h-2.82v-21.88h2.82Z" style="fill:#de242b;"/><path d="M289.05,58.49c1.43-.29,3.47-.45,5.42-.45,3.02,0,4.97.55,6.33,1.78,1.1.98,1.72,2.47,1.72,4.16,0,2.89-1.82,4.81-4.12,5.59v.1c1.69.58,2.69,2.14,3.21,4.41.72,3.05,1.23,5.16,1.69,6.01h-2.92c-.36-.62-.84-2.5-1.46-5.23-.65-3.02-1.82-4.16-4.38-4.25h-2.66v9.48h-2.82v-21.59ZM291.88,68.45h2.89c3.02,0,4.93-1.65,4.93-4.16,0-2.82-2.04-4.06-5.03-4.09-1.36,0-2.34.13-2.79.26v7.99Z" style="fill:#de242b;"/><path d="M317.86,69.81h-8.5v7.89h9.48v2.37h-12.3v-21.88h11.82v2.37h-8.99v6.91h8.5v2.34Z" style="fill:#de242b;"/><path d="M343.09,80.07c-.62-.62-1.2-1.23-2.04-2.14-1.88,1.76-3.99,2.5-6.4,2.5-4.25,0-6.72-2.86-6.72-6.14,0-2.99,1.79-5.03,4.29-6.39v-.1c-1.14-1.43-1.82-3.02-1.82-4.58,0-2.66,1.92-5.39,5.55-5.39,2.73,0,4.84,1.82,4.84,4.64,0,2.3-1.33,4.12-4.8,5.84v.1c1.85,2.14,3.93,4.54,5.32,6.1,1.01-1.53,1.69-3.64,2.11-6.4h2.6c-.58,3.44-1.53,6.17-3.15,8.09,1.17,1.23,2.3,2.47,3.6,3.86h-3.38ZM339.65,76.31c-1.3-1.43-3.73-4.09-6.17-6.88-1.17.75-2.82,2.14-2.82,4.45,0,2.5,1.85,4.42,4.48,4.42,1.88,0,3.47-.85,4.51-1.98ZM333,62.97c0,1.56.72,2.76,1.66,3.93,2.21-1.27,3.64-2.43,3.64-4.28,0-1.33-.75-2.83-2.53-2.83s-2.76,1.49-2.76,3.18Z" style="fill:#de242b;"/><path d="M355.54,76.63c1.27.78,3.12,1.43,5.06,1.43,2.89,0,4.58-1.53,4.58-3.73,0-2.05-1.17-3.21-4.12-4.35-3.57-1.27-5.78-3.12-5.78-6.2,0-3.41,2.82-5.94,7.08-5.94,2.24,0,3.86.52,4.84,1.07l-.78,2.3c-.71-.39-2.17-1.04-4.16-1.04-2.99,0-4.12,1.78-4.12,3.28,0,2.05,1.33,3.05,4.35,4.22,3.7,1.43,5.58,3.21,5.58,6.43,0,3.38-2.5,6.3-7.66,6.3-2.11,0-4.41-.62-5.58-1.4l.71-2.37Z" style="fill:#de242b;"/><path d="M383.27,69.81h-8.5v7.89h9.48v2.37h-12.3v-21.88h11.82v2.37h-8.99v6.91h8.5v2.34Z" style="fill:#de242b;"/><path d="M403.21,79.36c-1.04.52-3.12,1.04-5.78,1.04-6.17,0-10.81-3.9-10.81-11.07s4.64-11.49,11.43-11.49c2.73,0,4.45.58,5.19.98l-.68,2.3c-1.07-.52-2.6-.91-4.41-.91-5.13,0-8.54,3.28-8.54,9.02,0,5.36,3.08,8.8,8.41,8.8,1.72,0,3.47-.36,4.61-.91l.58,2.24Z" style="fill:#de242b;"/><path d="M409.58,58.19v12.95c0,4.9,2.17,6.98,5.1,6.98,3.25,0,5.32-2.14,5.32-6.98v-12.95h2.86v12.76c0,6.72-3.54,9.48-8.28,9.48-4.48,0-7.86-2.56-7.86-9.35v-12.89h2.86Z" style="fill:#de242b;"/><path d="M427.77,58.49c1.43-.29,3.47-.45,5.42-.45,3.02,0,4.97.55,6.33,1.78,1.1.98,1.72,2.47,1.72,4.16,0,2.89-1.82,4.81-4.12,5.59v.1c1.69.58,2.69,2.14,3.21,4.41.72,3.05,1.23,5.16,1.69,6.01h-2.92c-.36-.62-.84-2.5-1.46-5.23-.65-3.02-1.82-4.16-4.38-4.25h-2.66v9.48h-2.82v-21.59ZM430.6,68.45h2.89c3.02,0,4.93-1.65,4.93-4.16,0-2.82-2.04-4.06-5.03-4.09-1.36,0-2.34.13-2.79.26v7.99Z" style="fill:#de242b;"/><path d="M448.07,58.19v21.88h-2.82v-21.88h2.82Z" style="fill:#de242b;"/><path d="M457.17,60.59h-6.66v-2.4h16.2v2.4h-6.69v19.48h-2.86v-19.48Z" style="fill:#de242b;"/><path d="M474.93,80.07v-9.28l-6.91-12.6h3.21l3.08,6.04c.84,1.65,1.49,2.99,2.18,4.51h.06c.62-1.43,1.36-2.86,2.21-4.51l3.15-6.04h3.21l-7.34,12.56v9.32h-2.86Z" style="fill:#de242b;"/></g></svg>