<?xml version="1.0" encoding="UTF-8"?><svg id="Layer_2" xmlns="http://www.w3.org/2000/svg" viewBox="0 0 487.5 79.99"><g id="Layer_2-2"><path d="M145.61,58.19h11.57v2.33h-8.8v7.14h8.13v2.29h-8.13v9.72h-2.77v-21.49Z" style="fill:#61b946;"/><path d="M162.13,72.91l-2.23,6.76h-2.87l7.3-21.49h3.35l7.33,21.49h-2.96l-2.29-6.76h-7.62ZM169.18,70.75l-2.1-6.18c-.48-1.4-.8-2.68-1.11-3.92h-.06c-.32,1.27-.67,2.58-1.08,3.89l-2.1,6.22h6.47Z" style="fill:#61b946;"/><path d="M192.72,78.97c-1.02.51-3.06,1.02-5.67,1.02-6.06,0-10.62-3.83-10.62-10.87s4.56-11.29,11.22-11.29c2.68,0,4.37.57,5.1.96l-.67,2.26c-1.05-.51-2.55-.89-4.34-.89-5.04,0-8.38,3.22-8.38,8.86,0,5.26,3.03,8.64,8.26,8.64,1.69,0,3.41-.35,4.53-.89l.57,2.2Z" style="fill:#61b946;"/><path d="M198.97,58.19v21.49h-2.77v-21.49h2.77Z" style="fill:#61b946;"/><path d="M203.83,58.19h2.77v19.16h9.18v2.33h-11.96v-21.49Z" style="fill:#61b946;"/><path d="M221.66,58.19v21.49h-2.77v-21.49h2.77Z" style="fill:#61b946;"/><path d="M230.59,60.55h-6.54v-2.36h15.91v2.36h-6.57v19.13h-2.8v-19.13Z" style="fill:#61b946;"/><path d="M245.13,58.19v21.49h-2.77v-21.49h2.77Z" style="fill:#61b946;"/><path d="M261.11,69.6h-8.35v7.75h9.31v2.33h-12.08v-21.49h11.6v2.33h-8.83v6.79h8.35v2.29Z" style="fill:#61b946;"/><path d="M265.29,76.29c1.24.77,3.06,1.4,4.97,1.4,2.84,0,4.49-1.5,4.49-3.67,0-2.01-1.15-3.16-4.05-4.27-3.51-1.24-5.67-3.06-5.67-6.09,0-3.35,2.77-5.84,6.95-5.84,2.2,0,3.79.51,4.75,1.05l-.77,2.26c-.7-.38-2.14-1.02-4.08-1.02-2.93,0-4.05,1.75-4.05,3.22,0,2.01,1.31,3,4.27,4.15,3.63,1.4,5.48,3.15,5.48,6.31,0,3.32-2.45,6.19-7.52,6.19-2.07,0-4.34-.61-5.48-1.37l.7-2.33Z" style="fill:#61b946;"/><path d="M306.27,70.24c-.16-3-.35-6.6-.32-9.28h-.1c-.73,2.52-1.63,5.2-2.71,8.16l-3.79,10.43h-2.1l-3.47-10.23c-1.02-3.03-1.88-5.8-2.49-8.35h-.06c-.06,2.68-.22,6.28-.42,9.5l-.57,9.21h-2.65l1.5-21.49h3.54l3.67,10.39c.89,2.65,1.63,5,2.17,7.24h.1c.54-2.17,1.31-4.53,2.26-7.24l3.83-10.39h3.54l1.34,21.49h-2.71l-.54-9.44Z" style="fill:#61b946;"/><path d="M316.97,72.91l-2.23,6.76h-2.87l7.3-21.49h3.35l7.33,21.49h-2.96l-2.29-6.76h-7.62ZM324.01,70.75l-2.1-6.18c-.48-1.4-.8-2.68-1.11-3.92h-.06c-.32,1.27-.67,2.58-1.08,3.89l-2.1,6.22h6.47Z" style="fill:#61b946;"/><path d="M333.01,79.67v-21.49h3.03l6.89,10.87c1.59,2.52,2.84,4.78,3.86,6.98l.06-.03c-.26-2.87-.32-5.49-.32-8.83v-8.99h2.61v21.49h-2.8l-6.82-10.9c-1.5-2.39-2.93-4.85-4.02-7.17l-.1.03c.16,2.71.22,5.29.22,8.86v9.18h-2.61Z" style="fill:#61b946;"/><path d="M357.48,72.91l-2.23,6.76h-2.87l7.3-21.49h3.35l7.33,21.49h-2.96l-2.3-6.76h-7.62ZM364.52,70.75l-2.1-6.18c-.48-1.4-.8-2.68-1.11-3.92h-.06c-.32,1.27-.67,2.58-1.08,3.89l-2.1,6.22h6.47Z" style="fill:#61b946;"/><path d="M389.4,78.72c-1.24.45-3.7,1.18-6.6,1.18-3.25,0-5.93-.83-8.03-2.84-1.85-1.79-3-4.65-3-8,.03-6.41,4.43-11.09,11.64-11.09,2.49,0,4.43.54,5.36.99l-.67,2.26c-1.15-.51-2.58-.92-4.75-.92-5.23,0-8.64,3.25-8.64,8.64s3.28,8.67,8.29,8.67c1.82,0,3.06-.26,3.7-.57v-6.41h-4.37v-2.23h7.08v10.33Z" style="fill:#61b946;"/><path d="M404.78,69.6h-8.35v7.75h9.31v2.33h-12.08v-21.49h11.6v2.33h-8.83v6.79h8.35v2.29Z" style="fill:#61b946;"/><path d="M427.45,70.24c-.16-3-.35-6.6-.32-9.28h-.1c-.73,2.52-1.63,5.2-2.71,8.16l-3.79,10.43h-2.1l-3.47-10.23c-1.02-3.03-1.88-5.8-2.49-8.35h-.06c-.06,2.68-.22,6.28-.42,9.5l-.57,9.21h-2.65l1.5-21.49h3.54l3.67,10.39c.89,2.65,1.63,5,2.17,7.24h.1c.54-2.17,1.31-4.53,2.26-7.24l3.83-10.39h3.54l1.34,21.49h-2.71l-.54-9.44Z" style="fill:#61b946;"/><path d="M446.12,69.6h-8.35v7.75h9.31v2.33h-12.08v-21.49h11.6v2.33h-8.83v6.79h8.35v2.29Z" style="fill:#61b946;"/><path d="M450.69,79.67v-21.49h3.03l6.89,10.87c1.59,2.52,2.84,4.78,3.86,6.98l.06-.03c-.25-2.87-.32-5.49-.32-8.83v-8.99h2.61v21.49h-2.81l-6.82-10.9c-1.5-2.39-2.93-4.85-4.02-7.17l-.1.03c.16,2.71.22,5.29.22,8.86v9.18h-2.61Z" style="fill:#61b946;"/><path d="M475.75,60.55h-6.53v-2.36h15.91v2.36h-6.57v19.13h-2.81v-19.13Z" style="fill:#61b946;"/><path d="M116.26,4.18v39.05c-1.12,0-2.17.07-3.21-.04-.38-.04-.78-.44-1.05-.77-6.81-8.57-13.61-17.15-20.41-25.73-1.35-1.7-2.71-3.4-4.27-5.35v31.82h-3.96V4.22c2.14-.65,3.15-.36,4.45,1.3,7.96,10.08,15.92,20.15,23.88,30.23.15.19.32.36.68.76V4.17h3.89Z" style="fill:#fff;"/><path d="M353.6,43.13c-.2.05-.28.08-.36.09-2.27.43-3.72-.46-5.16-2.32-7.58-9.78-15.33-19.44-23.03-29.13-.05-.06-.13-.09-.34-.22v31.6h-3.97V4.23c1.96-.67,3.13-.37,4.35,1.17,8.02,10.14,16.03,20.28,24.05,30.42.13.16.28.31.6.67V4.15h3.87v38.97h-.01Z" style="fill:#fff;"/><path d="M455.13,43.21V4.11c.32-.05.56-.11.8-.11,5.03.03,10.07-.15,15.07.17,6.95.45,12.01,3.96,14.67,10.46,2.37,5.79,2.44,11.76.2,17.58-2.65,6.91-8.06,10.46-15.31,10.94-5.09.34-10.21.06-15.43.06h0ZM459.13,39.74c3.47,0,6.88.07,10.29-.02,5.44-.13,9.49-2.61,12.03-7.43,2.06-3.91,2.31-8.1,1.71-12.38-.89-6.42-5.31-11.35-11.58-12.12-4.04-.5-8.17-.17-12.27-.2-.06,0-.12.09-.19.15v32.01h0Z" style="fill:#fff;"/><path d="M235.72,28.34c3.08,4.83,6.21,9.75,9.49,14.89-1.5,0-2.78.06-4.05-.04-.34-.03-.73-.49-.96-.84-2.69-4.16-5.39-8.33-8.02-12.54-.49-.79-1.02-1.04-1.92-1.02-3.38.05-6.75.02-10.26.02v14.33h-4.02V4.14c.21-.06.36-.14.52-.14,5.53,0,11.07-.1,16.6.06,4.91.14,8.08,2.98,10.12,7.21,2.46,5.09.77,11.98-3.77,15.16-1.11.78-2.44,1.26-3.73,1.9h0ZM220.02,7.51v17.79c4.52,0,8.96.03,13.39-.03.77-.01,1.59-.29,2.29-.64,3.06-1.53,4.28-4.25,4.62-7.47.52-4.89-3.24-10.11-8.79-9.69-2.82.21-5.66.04-8.49.04h-3.02,0Z" style="fill:#fff;"/><path d="M178.88,24.82v14.87h22.45v3.46h-26.4V4.08h25.91v3.43h-21.94v14.01h19.09v3.31h-19.11Z" style="fill:#fff;"/><path d="M418.04,21.56h19.09v3.26h-19.06v14.87h22.41v3.46h-26.4V4.08h25.91v3.43h-21.94v14.06h-.01Z" style="fill:#fff;"/><path d="M370.94,4.05h3.86v22.28c.14.1.28.2.42.3.54-.65,1.05-1.34,1.63-1.95,6.27-6.65,12.56-13.28,18.83-19.94.6-.64,1.21-.94,2.09-.87.91.07,1.84.02,3.15.02-5.51,5.91-10.8,11.58-16.16,17.32,5.58,7.27,11.15,14.53,16.9,22.02-1.54,0-2.83.09-4.1-.05-.42-.04-.86-.6-1.17-1.01-4.58-5.98-9.14-11.98-13.71-17.97-.12-.16-.28-.3-.25-.27-1.85,1.72-3.61,3.48-5.5,5.07-1.73,1.47-2.24,3.2-2.1,5.42.19,2.88.05,5.78.05,8.74h-3.93V4.05h0Z" style="fill:#fff;"/><path d="M147.57,43.19h-3.92V7.53h-14.01v-3.44h31.93v3.34h-14v35.75h0Z" style="fill:#fff;"/><path d="M286.41,43.19h-26.54V4.11h3.9v35.59h22.64v3.48h0Z" style="fill:#fff;"/><path d="M66.18,43.2h-3.86V4.12h3.86v39.08Z" style="fill:#fff;"/><path d="M299.44,4.07h3.85v39.08h-3.85V4.07Z" style="fill:#fff;"/><path d="M23.58,47.15C10.58,47.15,0,36.58,0,23.58S10.58,0,23.58,0c2.59,0,5.13.42,7.56,1.24,1.66.56,2.55,2.36,1.99,4.02-.56,1.66-2.36,2.55-4.02,1.99-1.77-.6-3.63-.9-5.53-.9-9.5,0-17.24,7.73-17.24,17.23s7.73,17.24,17.24,17.24c1.75,0,3.17,1.42,3.17,3.17s-1.42,3.17-3.17,3.17h0Z" style="fill:#61b946;"/><path d="M33.81,44.41c-1.09,0-2.16-.57-2.75-1.58-.88-1.52-.36-3.46,1.15-4.34,2.56-1.49,4.71-3.63,6.22-6.18.89-1.51,2.83-2.01,4.34-1.12,1.51.89,2.01,2.83,1.12,4.34-2.06,3.49-5,6.41-8.5,8.44-.5.29-1.05.43-1.59.43h0Z" style="fill:#61b946;"/><path d="M35.23,11.39c0-1.76,1.43-3.19,3.19-3.19s3.19,1.43,3.19,3.19-1.43,3.19-3.19,3.19-3.19-1.43-3.19-3.19" style="fill:#61b946;"/><path d="M39.23,22.12c0-1.76,1.43-3.19,3.19-3.19s3.19,1.43,3.19,3.19-1.43,3.19-3.19,3.19-3.19-1.43-3.19-3.19" style="fill:#61b946;"/></g></svg>