<?xml version="1.0" encoding="UTF-8"?><svg id="Layer_2" xmlns="http://www.w3.org/2000/svg" viewBox="0 0 582.85 357.1"><g id="Layer_1-2"><path d="M330.96,314.52c4.04-1.87,8.14-3.62,12.12-5.63,27.38-13.86,48.45-34.27,63.28-61.12,6.71-12.16,11.4-25.06,14.4-38.61,2.75-12.4,3.89-24.97,3.31-37.61-1.01-22.12-6.39-43.24-17.33-62.54-23.15-40.85-57.7-66.37-104.18-74.6-60.44-10.7-121.35,18.47-151.65,72-13.83,24.43-20.39,50.72-18.83,78.69,2.5,44.87,21.76,81.31,57.06,109.14,17.72,13.97,37.89,22.82,59.95,27.35,9.69,1.99,19.53,2.79,29.44,2.75,19.13-.07,38.26-.06,57.39-.05,15.29,0,30.58.04,45.86.08,31.52.08,63.03.21,94.55.26,27.88.04,55.76,0,83.65-.08,2.45,0,4.35.51,6.26,2.21,5.33,4.73,10.9,9.2,16.61,13.96-3.83,3.22-7.5,6.31-11.17,9.39-1.15.96-2.5,1.75-3.43,2.88-3.08,3.72-7.06,4.09-11.58,4.08-93.76-.09-187.52.22-281.27-.19-40.03-.18-76.03-13.34-107.5-38.11-32.57-25.64-53.77-58.81-63.63-99.06-4.83-19.71-6.01-39.76-3.79-59.95,4.91-44.68,23.99-82.34,56.9-112.81C183.71,22.58,214.76,7.17,250.34,2.13c62.33-8.83,115.61,9.79,158.95,55.35,23.59,24.8,38.07,54.6,44.44,88.31,3.38,17.88,4.11,35.86,1.83,53.84-5.79,45.53-26.09,83.49-60.6,113.8-.85.75-2.17,1.38-3.27,1.38-19.81.14-39.61.18-59.42.24-.4,0-.8-.06-1.2-.1-.03-.14-.07-.28-.1-.43Z" style="fill:#b11e23;"/><path d="M.09,356.78c6.48-5.44,12.62-10.6,19.08-16.02-6.27-5.29-12.44-10.49-19.17-16.17,1.58,0,2.45,0,3.32,0,51.11,0,102.22,0,153.34-.04,1.94,0,3.42.5,4.96,1.71,16.72,13.2,35.17,23.27,55.28,30.51H.09Z" style="fill:#b11e23;"/></g></svg>