<?xml version="1.0" encoding="UTF-8"?><svg id="Layer_2" xmlns="http://www.w3.org/2000/svg" xmlns:xlink="http://www.w3.org/1999/xlink" viewBox="0 0 51.92 49.84"><defs><clipPath id="clippath"><rect width="51.92" height="49.84" style="fill:none;"/></clipPath><clipPath id="clippath-1"><path d="M64.59,24.92c0,21.32-17.31,38.63-38.63,38.63S-12.67,46.24-12.67,24.92,4.64-13.72,25.96-13.72,64.59,3.59,64.59,24.92" style="clip-rule:evenodd; fill:none;"/></clipPath><clipPath id="clippath-2"><rect x="-953.36" y="-1351.89" width="1133.86" height="4818.9" style="fill:none;"/></clipPath><clipPath id="clippath-3"><rect x="-953.34" y="-1351.9" width="1133.85" height="4818.9" style="fill:none;"/></clipPath></defs><g id="Layer_1-2"><g style="clip-path:url(#clippath);"><g style="clip-path:url(#clippath-1);"><g style="clip-path:url(#clippath-2);"><g style="clip-path:url(#clippath-3);"><path d="M41.92,34.48v5.55h-9.75c-2.59,0-4.68,2.1-4.68,4.68,0,.73.59,1.32,1.31,1.32h14.98c2.5,0,4.52-2.03,4.52-4.52v-7.19c0-3.59-2.4-6.61-5.68-7.56-1.18-.34-2.46-.13-3.51.51-1.44.89-3.26.89-4.7,0-1.05-.65-2.32-.85-3.51-.51-3.28.94-5.68,3.97-5.68,7.56v.74c0,1.27-1.03,2.3-2.3,2.3h-3.26" style="fill:none; stroke:#fff; stroke-linecap:round; stroke-linejoin:round; stroke-width:1.44px;"/><polyline points="6.89 46.03 1.32 32.32 14.31 32.32" style="fill:none; stroke:#fff; stroke-linecap:round; stroke-linejoin:round; stroke-width:1.44px;"/><line x1="19.87" y1="46.03" x2="14.3" y2="32.32" style="fill:none; stroke:#fff; stroke-linecap:round; stroke-linejoin:round; stroke-width:1.44px;"/><line x1="25.23" y1="46.03" x2="6.89" y2="46.03" style="fill:none; stroke:#fff; stroke-linecap:round; stroke-linejoin:round; stroke-width:1.44px;"/><line x1="1.32" y1="49.12" x2="51.2" y2="49.12" style="fill:none; stroke:#fff; stroke-linecap:round; stroke-linejoin:round; stroke-width:1.44px;"/><path d="M43.09,17.67c.58.17.83,1.04.57,1.93s-.96,1.48-1.54,1.3h0c-.99,2.59-2.93,4.34-5.16,4.34s-4.17-1.76-5.16-4.34c-.58.18-1.27-.41-1.54-1.3-.27-.89-.02-1.76.57-1.93" style="fill:none; stroke:#fff; stroke-linecap:round; stroke-linejoin:round; stroke-width:1.44px;"/><path d="M30.08,18.61c-.25-.83-.58-2.38-.19-4.2.06-.29,1.13-4.85,5.04-5.82,2.09-.52,4.49.11,5.98,1.68.42.45.7.9.87,1.23.03.01.09.05.17.1,1.26.88,1.96,2.4,1.86,3.97-.05.82-.19,2.11-.19,2.62" style="fill:none; stroke:#fff; stroke-linecap:round; stroke-linejoin:round; stroke-width:1.44px;"/><path d="M30.82,17.67c1.37-.87,3.15-2.12,4.19-3.37,2.1,1.91,5.09,3.31,7.93,3.37" style="fill:none; stroke:#fff; stroke-linecap:round; stroke-linejoin:round; stroke-width:1.44px;"/><line x1="18.63" y1="42.52" x2="27.91" y2="42.52" style="fill:none; stroke:#fff; stroke-linecap:round; stroke-linejoin:round; stroke-width:1.44px;"/><path d="M31.74,6.4l-2.2-2.2-3.43,2.55c-1.31-.83-2.77-1.44-4.33-1.8l-.63-4.23h-5.01l-.63,4.23c-1.56.35-3.02.97-4.33,1.8l-3.43-2.55-3.54,3.54,2.55,3.44c-.83,1.31-1.44,2.77-1.79,4.33l-4.23.63v5.01l4.23.63c.35,1.56.97,3.02,1.79,4.33l-2.55,3.44" style="fill:none; stroke:#fff; stroke-linecap:round; stroke-linejoin:round; stroke-width:1.44px;"/><path d="M14.54,25.25c-2.21-1.37-3.68-3.82-3.68-6.61,0-4.3,3.48-7.78,7.78-7.78,2.69,0,5.05,1.36,6.45,3.43" style="fill:none; stroke:#fff; stroke-linecap:round; stroke-linejoin:round; stroke-width:1.44px;"/></g></g></g></g></g></svg>