<?xml version="1.0" encoding="UTF-8"?><svg id="Layer_2" xmlns="http://www.w3.org/2000/svg" xmlns:xlink="http://www.w3.org/1999/xlink" viewBox="0 0 44.15 41.94"><defs><clipPath id="clippath"><rect width="44.15" height="41.94" style="fill:none;"/></clipPath><clipPath id="clippath-1"><path d="M60.71,20.97c0,21.32-17.31,38.63-38.63,38.63S-16.55,42.29-16.55,20.97.75-17.67,22.08-17.67,60.71-.36,60.71,20.97" style="clip-rule:evenodd; fill:none;"/></clipPath><clipPath id="clippath-2"><rect x="-751.32" y="-1355.84" width="1133.86" height="4818.9" style="fill:none;"/></clipPath><clipPath id="clippath-3"><rect x="-751.31" y="-1355.85" width="1133.85" height="4818.9" style="fill:none;"/></clipPath></defs><g id="Layer_1-2"><g style="clip-path:url(#clippath);"><g style="clip-path:url(#clippath-1);"><g style="clip-path:url(#clippath-2);"><g style="clip-path:url(#clippath-3);"><path d="M42.07,6.99l1.85-2.53c.39-.53.28-1.28-.26-1.67l-3.49-2.56c-.53-.39-1.28-.28-1.67.25l-1.01,1.37s0,0-.01.01c0,0,0,.01,0,.02l-3.76,5.1H2.34C1.05,6.98,0,8.03,0,9.32v22.1c0,1.29,1.05,2.34,2.34,2.34h15.11v3.63c-1.17.09-2.09,1.07-2.09,2.26v1.63c0,.37.3.67.67.67h11.98c.37,0,.67-.3.67-.67v-1.63c0-1.19-.92-2.17-2.09-2.26v-3.63h15.23c1.29,0,2.34-1.05,2.34-2.34V9.32c0-1.2-.91-2.2-2.08-2.32M38.16,3.2l1.1.8-8.59,11.78-1.61-.24,9.1-12.34ZM28.46,16.81l1.95.29.89,1.81-3.41,1.72.57-3.82ZM32.34,17.99l-.65-1.33,8.65-11.87,1.1.8-9.09,12.4ZM42.76,3.79l-.53.73-3.27-2.4.54-.73,3.27,2.4ZM27.34,39.64v.96h-10.64v-.96c0-.51.42-.93.93-.93h8.78c.51,0,.93.42.93.93ZM25.25,37.37h-6.46v-3.62h6.46v3.62ZM42.82,31.42c0,.55-.45,1-1,1H2.34c-.55,0-1-.45-1-1V9.32c0-.55.45-1,1-1h30.39l-5.28,7.17c-.07.1-.13.21-.16.32,0,.01,0,.02-.01.03-.02.06-.04.12-.04.18l-.7,4.68c-.07.44.12.88.48,1.15.21.15.45.23.7.23.18,0,.37-.04.54-.13l4.27-2.15c.17-.08.32-.21.43-.36l8.15-11.12h.72c.55,0,1,.45,1,1v22.1Z" style="fill:#fff;"/><path d="M5.45,27.36c-.37,0-.67.3-.67.67v2.05c0,.37.3.67.67.67s.67-.3.67-.67v-2.05c0-.37-.3-.67-.67-.67" style="fill:#fff;"/><path d="M9.55,27.36c-.37,0-.67.3-.67.67v2.05c0,.37.3.67.67.67s.67-.3.67-.67v-2.05c0-.37-.3-.67-.67-.67" style="fill:#fff;"/><path d="M13.65,27.36c-.37,0-.67.3-.67.67v2.05c0,.37.3.67.67.67s.67-.3.67-.67v-2.05c0-.37-.3-.67-.67-.67" style="fill:#fff;"/><path d="M17.75,27.36c-.37,0-.67.3-.67.67v2.05c0,.37.3.67.67.67s.67-.3.67-.67v-2.05c0-.37-.3-.67-.67-.67" style="fill:#fff;"/><path d="M21.85,27.36c-.37,0-.67.3-.67.67v2.05c0,.37.3.67.67.67s.67-.3.67-.67v-2.05c0-.37-.3-.67-.67-.67" style="fill:#fff;"/><path d="M25.95,27.36c-.37,0-.67.3-.67.67v2.05c0,.37.3.67.67.67s.67-.3.67-.67v-2.05c0-.37-.3-.67-.67-.67" style="fill:#fff;"/><path d="M30.05,27.36c-.37,0-.67.3-.67.67v2.05c0,.37.3.67.67.67s.67-.3.67-.67v-2.05c0-.37-.3-.67-.67-.67" style="fill:#fff;"/><path d="M34.15,27.36c-.37,0-.67.3-.67.67v2.05c0,.37.3.67.67.67s.67-.3.67-.67v-2.05c0-.37-.3-.67-.67-.67" style="fill:#fff;"/><path d="M38.25,27.36c-.37,0-.67.3-.67.67v2.05c0,.37.3.67.67.67s.67-.3.67-.67v-2.05c0-.37-.3-.67-.67-.67" style="fill:#fff;"/><path d="M31.06,25.2H12.88c-.41,0-.74-.33-.74-.74v-13.16c0-.41.33-.75.74-.75h15.38c.41,0,.74.33.74.75s-.33.75-.74.75h-14.63v11.67h16.69v-1.63c0-.41.33-.75.75-.75s.74.33.74.75v2.38c0,.41-.33.74-.74.74" style="fill:#fff;"/></g></g></g></g></g></svg>