<?xml version="1.0" encoding="UTF-8"?><svg id="Layer_2" xmlns="http://www.w3.org/2000/svg" xmlns:xlink="http://www.w3.org/1999/xlink" viewBox="0 0 41.71 41.69"><defs><clipPath id="clippath"><rect width="41.71" height="41.69" style="fill:none;"/></clipPath><clipPath id="clippath-1"><path d="M59.49,20.84c0,21.32-17.31,38.63-38.63,38.63S-17.78,42.17-17.78,20.84-.47-17.79,20.85-17.79,59.49-.48,59.49,20.84" style="clip-rule:evenodd; fill:none;"/></clipPath><clipPath id="clippath-2"><rect x="-339.43" y="-1355.96" width="1133.86" height="4818.9" style="fill:none;"/></clipPath><clipPath id="clippath-3"><rect x="-339.42" y="-1355.98" width="1133.85" height="4818.9" style="fill:none;"/></clipPath></defs><g id="Layer_1-2"><g style="clip-path:url(#clippath);"><g style="clip-path:url(#clippath-1);"><g style="clip-path:url(#clippath-2);"><g style="clip-path:url(#clippath-3);"><path d="M40.72,27.1C45.02,13.85,34.74-.12,20.84,0,9.12-.02-.4,9.79.01,21.51c.33,11.16,9.55,20.19,20.83,20.18,9,.06,17.23-6.02,19.88-14.58M29.03,38.38v-10.09c0-.41.33-.74.74-.74h9.23c-1.77,4.78-5.38,8.68-9.97,10.83ZM19.35,40.14v-21.35c0-.85-.47-1.62-1.23-2l-4.86-2.43c.69-2.3-1.18-4.72-3.58-4.68-4.94.2-4.94,7.24,0,7.44,1.18,0,2.23-.57,2.91-1.43l4.87,2.43c.25.13.41.38.41.67v21.18c-8.78-1.36-15.63-8.65-16.32-17.64h8.87c.41,0,.74.33.74.74v3.8c-1.7.35-2.98,1.85-2.98,3.65.2,4.94,7.24,4.94,7.44,0,0-1.8-1.28-3.3-2.98-3.65v-3.8c0-1.23-1-2.23-2.23-2.23H1.48c-.07-16.17,19.07-25.22,31.47-15.08l-6.23,3.11c-.68-.86-1.73-1.43-2.91-1.43-4.94.21-4.94,7.24,0,7.44,2.4.04,4.27-2.38,3.58-4.68l6.77-3.38c4.99,4.56,7.33,12.48,5.31,19.23h-9.7c-1.23,0-2.23,1-2.23,2.23v10.71c-1.19.44-2.44.77-3.72.97v-16.01c0-.27.15-.52.38-.65l2.76-1.54c.68.79,1.68,1.31,2.81,1.31,4.94-.2,4.94-7.24,0-7.44-2.46-.04-4.35,2.51-3.53,4.83l-2.76,1.53c-.71.39-1.15,1.14-1.15,1.95v16.18c-.98.08-2,.08-2.98,0ZM9.67,15.63c-1.23,0-2.23-1-2.23-2.23.12-2.96,4.34-2.96,4.47,0,0,1.23-1,2.23-2.23,2.23ZM11.91,28.29c1.23,0,2.23,1,2.23,2.23-.12,2.96-4.34,2.96-4.47,0,0-1.23,1-2.23,2.23-2.23ZM26.05,11.17c0,1.23-1,2.23-2.23,2.23-2.96-.12-2.96-4.34,0-4.47,1.23,0,2.23,1,2.23,2.23ZM27.54,19.35c0-1.23,1-2.23,2.23-2.23,2.96.12,2.96,4.34,0,4.47-1.23,0-2.23-1-2.23-2.23Z" style="fill:#fff;"/></g></g></g></g></g></svg>