<?xml version="1.0" encoding="UTF-8"?><svg id="Layer_2" xmlns="http://www.w3.org/2000/svg" xmlns:xlink="http://www.w3.org/1999/xlink" viewBox="0 0 61.15 41.95"><defs><clipPath id="clippath"><rect width="61.15" height="41.95" style="fill:none;"/></clipPath><clipPath id="clippath-1"><path d="M67.62,20.97c0,21.32-17.31,38.63-38.63,38.63S-9.65,42.3-9.65,20.97,7.66-17.66,28.99-17.66,67.62-.35,67.62,20.97" style="clip-rule:evenodd; fill:none;"/></clipPath><clipPath id="clippath-2"><rect x="-537.94" y="-1355.83" width="1133.86" height="4818.9" style="fill:none;"/></clipPath><clipPath id="clippath-3"><rect x="-537.92" y="-1355.85" width="1133.85" height="4818.9" style="fill:none;"/></clipPath></defs><g id="Layer_1-2"><g style="clip-path:url(#clippath);"><g style="clip-path:url(#clippath-1);"><g style="clip-path:url(#clippath-2);"><g style="clip-path:url(#clippath-3);"><path d="M8.07,40.52H3.99c-.9,0-2.39.37-2.55-.82-.17-1.23,0-2.61,0-3.85v-7.27c0-.28-.09-.73,0-1.01.22-.7.7-.57,1.21-.57h2.61c.83,0,3.04-.47,3.35.64.09.31,0,.77,0,1.08v8.11c0,.52.45,3.59-.55,3.7-.9.1-.91,1.53,0,1.43,1.85-.21,1.97-1.66,1.97-3.15v-5.87c0-1.68.03-3.36,0-5.04-.03-1.62-1.02-2.33-2.57-2.33-1.78,0-3.57-.08-5.35,0C.48,25.63.01,26.83.01,28.25v11c0,1.66.72,2.69,2.49,2.69h5.56c.92,0,.92-1.43,0-1.43" style="fill:#fff;"/><path d="M59.89,31.41h-7.67c-.99,0-2.06-.12-3.04,0-.79.1-.98.55-1.22,1.23-.17.5.35.03-.07.21-.19.08-.57,0-.78,0h-4.82c-.31,0-1.33.17-1.61,0-.23-.14.06-.01-.02-.4-.08-.41-.39-.79-.77-.94-.74-.3-1.86-.09-2.63-.09h-4.99c-1.12,0-2.28-.09-3.4,0-1.57.13-1.54,1.8-1.01,2.91.42.87.69,1.7,1.76,1.77.65.04,1.32,0,1.97,0h26.7c.65,0,1.36.11,1.83-.45.86-1.04,1.81-3.67-.04-4.19-.88-.25-1.26,1.12-.38,1.38.28.08-.47,1.53-.57,1.68-.22.3.3.03-.14.17-.48.16-1.29,0-1.79,0h-27.04c-.13,0-.45.06-.57,0-.22-.11-.06-.05-.16-.39-.07-.25-.75-1.25-.6-1.43.09-.1.99,0,1.12,0h8.38c.22,0,.82-.11,1.01,0,.36.2-.14-.36-.03.12.1.44.09.8.5,1.09.65.46,1.97.22,2.69.22h4.44c1.22,0,2.09.11,2.42-1.31.07-.33-.37.01.04-.12.16-.05.42,0,.58,0h9.92c.92,0,.92-1.43,0-1.43" style="fill:#fff;"/><path d="M31.81,32.12v-11.02c0-1.47-.47-3.98,1.59-4.18,1-.09,2.05,0,3.05,0h13.63c1.42,0,2.85-.05,4.27,0,1.8.06,1.87,1.44,1.87,2.83v12.37c0,.92,1.43.92,1.43,0v-11.91c0-1.76.08-3.74-1.93-4.51-1.1-.42-2.57-.21-3.72-.21h-14.44c-1.36,0-2.72-.05-4.08,0-2.12.07-3.09,1.7-3.09,3.63v13c0,.92,1.43.92,1.43,0" style="fill:#fff;"/><path d="M31.1,23.1H6.54c-1.33,0-2.79.17-4.11,0-1.44-.18-.99-2.41-.99-3.53V2.88c0-.68.09-1.32.96-1.44.17-.02.37,0,.54,0h29.03c1.13,0,2.28-.04,3.41,0,.31.01.6-.04.9.13.58.34.47,1.08.47,1.64v12.99c0,.92,1.43.92,1.43,0V4.92c0-1.36.34-3.3-.8-4.3-.81-.71-1.84-.6-2.83-.6H3.9C3.07.02,2.08-.11,1.32.28-.19,1.06.01,2.69.01,4.11v16.55c0,1.05-.16,2.21.6,3.06.56.63,1.3.79,2.09.8,1.84.03,3.68,0,5.52,0h22.87c.92,0,.92-1.43,0-1.43" style="fill:#fff;"/><path d="M22.36,29.9c-.67-1.92-.7-3.91-.34-5.89.16-.9-1.21-1.28-1.38-.38-.4,2.23-.42,4.5.34,6.65.3.86,1.68.49,1.38-.38" style="fill:#fff;"/><path d="M16.19,24c.36,1.98.33,3.98-.34,5.89-.31.87,1.07,1.24,1.38.38.76-2.16.74-4.43.34-6.65-.16-.9-1.54-.52-1.38.38" style="fill:#fff;"/><path d="M31.1,19.34H.73c-.92,0-.92,1.43,0,1.43h30.38c.92,0,.92-1.43,0-1.43" style="fill:#fff;"/><path d="M26.49,29.82h-14.77c-.92,0-.92,1.43,0,1.43h14.77c.92,0,.92-1.43,0-1.43" style="fill:#fff;"/><path d="M5.65,39.12c0,.39-.32.71-.71.71s-.71-.32-.71-.71.32-.71.71-.71.71.32.71.71" style="fill:#fff;"/></g></g></g></g></g></svg>