<?xml version="1.0" encoding="UTF-8"?><svg id="Layer_2" xmlns="http://www.w3.org/2000/svg" xmlns:xlink="http://www.w3.org/1999/xlink" viewBox="0 0 34.4 28.48"><defs><clipPath id="clippath"><path d="M14.73,0v7.88c0,4.09-.49,7.47-1.47,10.14-.98,2.66-2.67,4.91-5.08,6.74-2.41,1.83-5.14,3.07-8.18,3.72v-6.36c2.17-1.2,3.4-2.83,3.7-4.89H0V0h14.73M34.4,0v7.88c0,4.09-.49,7.47-1.47,10.14-.98,2.66-2.67,4.91-5.08,6.74-2.41,1.83-5.14,3.07-8.18,3.72v-6.36c2.14-1.2,3.35-2.83,3.64-4.89h-3.64V0h14.73Z" style="clip-rule:evenodd; fill:none;"/></clipPath><clipPath id="clippath-1"><rect x="-549.72" y="-3270.75" width="1133.86" height="4818.9" style="fill:none;"/></clipPath><clipPath id="clippath-2"><rect x="-549.71" y="-3270.77" width="1133.85" height="4818.9" style="fill:none;"/></clipPath></defs><g id="Layer_1-2"><g style="clip-path:url(#clippath);"><g style="clip-path:url(#clippath-1);"><g style="clip-path:url(#clippath-2);"><path d="M34.4,0v7.88c0,4.09-.49,7.47-1.47,10.14-.98,2.66-2.67,4.91-5.08,6.74-2.41,1.83-5.14,3.07-8.18,3.72v-6.36c2.14-1.2,3.35-2.83,3.64-4.89h-3.64V0h14.73Z" style="fill:none; stroke:#115ca8; stroke-miterlimit:10; stroke-width:2px;"/><path d="M14.73,0v7.88c0,4.09-.49,7.47-1.47,10.14-.98,2.66-2.67,4.91-5.08,6.74C5.77,26.58,3.04,27.82,0,28.48v-6.36c2.17-1.2,3.4-2.83,3.7-4.89H0V0h14.73Z" style="fill:none; stroke:#115ca8; stroke-miterlimit:10; stroke-width:2px;"/></g></g></g></g></svg>